<?xml version="1.0" encoding="UTF-8" standalone="no"?>
<!DOCTYPE svg PUBLIC "-//W3C//DTD SVG 1.1//EN"
 "http://www.w3.org/Graphics/SVG/1.1/DTD/svg11.dtd">
<!-- Generated by graphviz version 2.43.0 (0)
 -->
<!-- Title: main/eth_sig.cpp Pages: 1 -->
<svg width="331pt" height="137pt"
 viewBox="0.00 0.00 331.00 137.00" xmlns="http://www.w3.org/2000/svg" xmlns:xlink="http://www.w3.org/1999/xlink">
<g id="graph0" class="graph" transform="scale(1 1) rotate(0) translate(4 133)">
<title>main/eth_sig.cpp</title>
<!-- Node1 -->
<g id="Node000001" class="node">
<title>Node1</title>
<g id="a_Node000001"><a xlink:title="secp256k1 verification + recovery bit, on mbedTLS&#39;s ECP module.">
<polygon fill="#999999" stroke="#666666" points="206.5,-129 106.5,-129 106.5,-110 206.5,-110 206.5,-129"/>
<text text-anchor="middle" x="156.5" y="-117" font-family="Helvetica,sans-Serif" font-size="10.00">main/eth_sig.cpp</text>
</a>
</g>
</g>
<!-- Node2 -->
<g id="Node000002" class="node">
<title>Node2</title>
<g id="a_Node000002"><a xlink:href="eth__sig_8h.html" target="_top" xlink:title="The recovery bit of a secp256k1 signature, computed on the device.">
<polygon fill="white" stroke="#666666" points="95,-74 34,-74 34,-55 95,-55 95,-74"/>
<text text-anchor="middle" x="64.5" y="-62" font-family="Helvetica,sans-Serif" font-size="10.00">eth_sig.h</text>
</a>
</g>
</g>
<!-- Node1&#45;&gt;Node2 -->
<g id="edge1_Node000001_Node000002" class="edge">
<title>Node1&#45;&gt;Node2</title>
<g id="a_edge1_Node000001_Node000002"><a xlink:title=" ">
<path fill="none" stroke="#63b8ff" d="M141.72,-109.98C127.32,-101.69 105.19,-88.94 88.31,-79.22"/>
<polygon fill="#63b8ff" stroke="#63b8ff" points="89.96,-76.13 79.55,-74.17 86.47,-82.19 89.96,-76.13"/>
</a>
</g>
</g>
<!-- Node5 -->
<g id="Node000005" class="node">
<title>Node5</title>
<g id="a_Node000005"><a xlink:title=" ">
<polygon fill="#e0e0e0" stroke="#999999" points="199.5,-74 113.5,-74 113.5,-55 199.5,-55 199.5,-74"/>
<text text-anchor="middle" x="156.5" y="-62" font-family="Helvetica,sans-Serif" font-size="10.00">mbedtls/ecp.h</text>
</a>
</g>
</g>
<!-- Node1&#45;&gt;Node5 -->
<g id="edge4_Node000001_Node000005" class="edge">
<title>Node1&#45;&gt;Node5</title>
<g id="a_edge4_Node000001_Node000005"><a xlink:title=" ">
<path fill="none" stroke="#63b8ff" d="M156.5,-109.75C156.5,-102.8 156.5,-92.85 156.5,-84.13"/>
<polygon fill="#63b8ff" stroke="#63b8ff" points="160,-84.09 156.5,-74.09 153,-84.09 160,-84.09"/>
</a>
</g>
</g>
<!-- Node6 -->
<g id="Node000006" class="node">
<title>Node6</title>
<g id="a_Node000006"><a xlink:title=" ">
<polygon fill="#e0e0e0" stroke="#999999" points="323,-74 218,-74 218,-55 323,-55 323,-74"/>
<text text-anchor="middle" x="270.5" y="-62" font-family="Helvetica,sans-Serif" font-size="10.00">mbedtls/bignum.h</text>
</a>
</g>
</g>
<!-- Node1&#45;&gt;Node6 -->
<g id="edge5_Node000001_Node000006" class="edge">
<title>Node1&#45;&gt;Node6</title>
<g id="a_edge5_Node000001_Node000006"><a xlink:title=" ">
<path fill="none" stroke="#63b8ff" d="M174.82,-109.98C193.16,-101.46 221.61,-88.23 242.73,-78.41"/>
<polygon fill="#63b8ff" stroke="#63b8ff" points="244.26,-81.56 251.85,-74.17 241.31,-75.21 244.26,-81.56"/>
</a>
</g>
</g>
<!-- Node3 -->
<g id="Node000003" class="node">
<title>Node3</title>
<g id="a_Node000003"><a xlink:title=" ">
<polygon fill="#e0e0e0" stroke="#999999" points="53,-19 0,-19 0,0 53,0 53,-19"/>
<text text-anchor="middle" x="26.5" y="-7" font-family="Helvetica,sans-Serif" font-size="10.00">stdint.h</text>
</a>
</g>
</g>
<!-- Node2&#45;&gt;Node3 -->
<g id="edge2_Node000002_Node000003" class="edge">
<title>Node2&#45;&gt;Node3</title>
<g id="a_edge2_Node000002_Node000003"><a xlink:title=" ">
<path fill="none" stroke="#63b8ff" d="M58.23,-54.75C52.91,-47.34 45.14,-36.5 38.62,-27.41"/>
<polygon fill="#63b8ff" stroke="#63b8ff" points="41.33,-25.18 32.66,-19.09 35.64,-29.26 41.33,-25.18"/>
</a>
</g>
</g>
<!-- Node4 -->
<g id="Node000004" class="node">
<title>Node4</title>
<g id="a_Node000004"><a xlink:title=" ">
<polygon fill="#e0e0e0" stroke="#999999" points="133.5,-19 71.5,-19 71.5,0 133.5,0 133.5,-19"/>
<text text-anchor="middle" x="102.5" y="-7" font-family="Helvetica,sans-Serif" font-size="10.00">stdbool.h</text>
</a>
</g>
</g>
<!-- Node2&#45;&gt;Node4 -->
<g id="edge3_Node000002_Node000004" class="edge">
<title>Node2&#45;&gt;Node4</title>
<g id="a_edge3_Node000002_Node000004"><a xlink:title=" ">
<path fill="none" stroke="#63b8ff" d="M70.77,-54.75C76.09,-47.34 83.86,-36.5 90.38,-27.41"/>
<polygon fill="#63b8ff" stroke="#63b8ff" points="93.36,-29.26 96.34,-19.09 87.67,-25.18 93.36,-29.26"/>
</a>
</g>
</g>
</g>
</svg>
