<?xml version="1.0" encoding="UTF-8" standalone="no"?>
<!DOCTYPE svg PUBLIC "-//W3C//DTD SVG 1.1//EN"
 "http://www.w3.org/Graphics/SVG/1.1/DTD/svg11.dtd">
<!-- Generated by graphviz version 2.43.0 (0)
 -->
<!-- Title: main/keccak256.h Pages: 1 -->
<svg width="480pt" height="82pt"
 viewBox="0.00 0.00 479.50 82.00" xmlns="http://www.w3.org/2000/svg" xmlns:xlink="http://www.w3.org/1999/xlink">
<g id="graph0" class="graph" transform="scale(1 1) rotate(0) translate(4 78)">
<title>main/keccak256.h</title>
<!-- Node1 -->
<g id="Node000001" class="node">
<title>Node1</title>
<g id="a_Node000001"><a xlink:title="Original Keccak&#45;256 digest as used by Ethereum.">
<polygon fill="#999999" stroke="#666666" points="296,-74 191,-74 191,-55 296,-55 296,-74"/>
<text text-anchor="middle" x="243.5" y="-62" font-family="Helvetica,sans-Serif" font-size="10.00">main/keccak256.h</text>
</a>
</g>
</g>
<!-- Node2 -->
<g id="Node000002" class="node">
<title>Node2</title>
<g id="a_Node000002"><a xlink:href="eth__addr_8cpp.html" target="_top" xlink:title="Implementation of the hex Ethereum&#45;address parser, with EIP&#45;55 checksum verification (HARDENING....">
<polygon fill="white" stroke="#666666" points="107,-19 0,-19 0,0 107,0 107,-19"/>
<text text-anchor="middle" x="53.5" y="-7" font-family="Helvetica,sans-Serif" font-size="10.00">main/eth_addr.cpp</text>
</a>
</g>
</g>
<!-- Node1&#45;&gt;Node2 -->
<g id="edge1_Node000001_Node000002" class="edge">
<title>Node1&#45;&gt;Node2</title>
<g id="a_edge1_Node000001_Node000002"><a xlink:title=" ">
<path fill="none" stroke="#63b8ff" d="M202.93,-52.18C167.4,-42.27 116.53,-28.08 84.27,-19.08"/>
<polygon fill="#63b8ff" stroke="#63b8ff" points="202.4,-55.67 212.97,-54.98 204.28,-48.93 202.4,-55.67"/>
</a>
</g>
</g>
<!-- Node3 -->
<g id="Node000003" class="node">
<title>Node3</title>
<g id="a_Node000003"><a xlink:href="keccak256_8cpp.html" target="_top" xlink:title="Original (pre&#45;NIST) Keccak&#45;256 implementation, 0x01 padding.">
<polygon fill="white" stroke="#666666" points="241.5,-19 125.5,-19 125.5,0 241.5,0 241.5,-19"/>
<text text-anchor="middle" x="183.5" y="-7" font-family="Helvetica,sans-Serif" font-size="10.00">main/keccak256.cpp</text>
</a>
</g>
</g>
<!-- Node1&#45;&gt;Node3 -->
<g id="edge2_Node000001_Node000003" class="edge">
<title>Node1&#45;&gt;Node3</title>
<g id="a_edge2_Node000001_Node000003"><a xlink:title=" ">
<path fill="none" stroke="#63b8ff" d="M226.32,-48.32C215.62,-38.87 202.24,-27.06 193.32,-19.17"/>
<polygon fill="#63b8ff" stroke="#63b8ff" points="224.05,-50.99 233.86,-54.98 228.68,-45.74 224.05,-50.99"/>
</a>
</g>
</g>
<!-- Node4 -->
<g id="Node000004" class="node">
<title>Node4</title>
<g id="a_Node000004"><a xlink:href="main_8cpp.html" target="_top" xlink:title="cryptnox&#45;pos entry point: touchscreen USDC payment terminal.">
<polygon fill="white" stroke="#666666" points="349,-19 260,-19 260,0 349,0 349,-19"/>
<text text-anchor="middle" x="304.5" y="-7" font-family="Helvetica,sans-Serif" font-size="10.00">main/main.cpp</text>
</a>
</g>
</g>
<!-- Node1&#45;&gt;Node4 -->
<g id="edge3_Node000001_Node000004" class="edge">
<title>Node1&#45;&gt;Node4</title>
<g id="a_edge3_Node000001_Node000004"><a xlink:title=" ">
<path fill="none" stroke="#63b8ff" d="M260.97,-48.32C271.84,-38.87 285.44,-27.06 294.52,-19.17"/>
<polygon fill="#63b8ff" stroke="#63b8ff" points="258.55,-45.78 253.3,-54.98 263.15,-51.07 258.55,-45.78"/>
</a>
</g>
</g>
<!-- Node5 -->
<g id="Node000005" class="node">
<title>Node5</title>
<g id="a_Node000005"><a xlink:href="settings_8cpp.html" target="_top" xlink:title="NVS&#45;backed implementation of the persistent device settings.">
<polygon fill="white" stroke="#666666" points="471.5,-19 367.5,-19 367.5,0 471.5,0 471.5,-19"/>
<text text-anchor="middle" x="419.5" y="-7" font-family="Helvetica,sans-Serif" font-size="10.00">main/settings.cpp</text>
</a>
</g>
</g>
<!-- Node1&#45;&gt;Node5 -->
<g id="edge4_Node000001_Node000005" class="edge">
<title>Node1&#45;&gt;Node5</title>
<g id="a_edge4_Node000001_Node000005"><a xlink:title=" ">
<path fill="none" stroke="#63b8ff" d="M281.5,-52.06C314.4,-42.15 361.24,-28.04 391,-19.08"/>
<polygon fill="#63b8ff" stroke="#63b8ff" points="280.34,-48.75 271.78,-54.98 282.36,-55.45 280.34,-48.75"/>
</a>
</g>
</g>
</g>
</svg>
