<?xml version="1.0" encoding="UTF-8" standalone="no"?>
<!DOCTYPE svg PUBLIC "-//W3C//DTD SVG 1.1//EN"
 "http://www.w3.org/Graphics/SVG/1.1/DTD/svg11.dtd">
<!-- Generated by graphviz version 2.43.0 (0)
 -->
<!-- Title: main/net.h Pages: 1 -->
<svg width="218pt" height="137pt"
 viewBox="0.00 0.00 217.50 137.00" xmlns="http://www.w3.org/2000/svg" xmlns:xlink="http://www.w3.org/1999/xlink">
<g id="graph0" class="graph" transform="scale(1 1) rotate(0) translate(4 133)">
<title>main/net.h</title>
<!-- Node1 -->
<g id="Node000001" class="node">
<title>Node1</title>
<g id="a_Node000001"><a xlink:title="Network bring&#45;up: Wi&#45;Fi station (init/scan/connect/RSSI) and SNTP time sync. No application&#45;protocol ...">
<polygon fill="#999999" stroke="#666666" points="118,-129 49,-129 49,-110 118,-110 118,-129"/>
<text text-anchor="middle" x="83.5" y="-117" font-family="Helvetica,sans-Serif" font-size="10.00">main/net.h</text>
</a>
</g>
</g>
<!-- Node2 -->
<g id="Node000002" class="node">
<title>Node2</title>
<g id="a_Node000002"><a xlink:href="main_8cpp.html" target="_top" xlink:title="cryptnox&#45;pos entry point: touchscreen USDC payment terminal.">
<polygon fill="white" stroke="#666666" points="89,-19 0,-19 0,0 89,0 89,-19"/>
<text text-anchor="middle" x="44.5" y="-7" font-family="Helvetica,sans-Serif" font-size="10.00">main/main.cpp</text>
</a>
</g>
</g>
<!-- Node1&#45;&gt;Node2 -->
<g id="edge1_Node000001_Node000002" class="edge">
<title>Node1&#45;&gt;Node2</title>
<g id="a_edge1_Node000001_Node000002"><a xlink:title=" ">
<path fill="none" stroke="#63b8ff" d="M60.01,-103.76C50.18,-96.2 39.82,-86.03 34.5,-74 26.37,-55.63 34.62,-31.7 40.23,-19.11"/>
<polygon fill="#63b8ff" stroke="#63b8ff" points="58.2,-106.77 68.37,-109.73 62.26,-101.07 58.2,-106.77"/>
</a>
</g>
</g>
<!-- Node3 -->
<g id="Node000003" class="node">
<title>Node3</title>
<g id="a_Node000003"><a xlink:href="net_8cpp.html" target="_top" xlink:title="Wi&#45;Fi station bring&#45;up (init/scan/connect/RSSI) and SNTP time sync.">
<polygon fill="white" stroke="#666666" points="123.5,-74 43.5,-74 43.5,-55 123.5,-55 123.5,-74"/>
<text text-anchor="middle" x="83.5" y="-62" font-family="Helvetica,sans-Serif" font-size="10.00">main/net.cpp</text>
</a>
</g>
</g>
<!-- Node1&#45;&gt;Node3 -->
<g id="edge2_Node000001_Node000003" class="edge">
<title>Node1&#45;&gt;Node3</title>
<g id="a_edge2_Node000001_Node000003"><a xlink:title=" ">
<path fill="none" stroke="#63b8ff" d="M83.5,-99.66C83.5,-90.93 83.5,-80.99 83.5,-74.09"/>
<polygon fill="#63b8ff" stroke="#63b8ff" points="80,-99.75 83.5,-109.75 87,-99.75 80,-99.75"/>
</a>
</g>
</g>
<!-- Node4 -->
<g id="Node000004" class="node">
<title>Node4</title>
<g id="a_Node000004"><a xlink:href="ui_8h.html" target="_top" xlink:title="Touchscreen UI API: screens, events and transaction states for the CYD (ILI9341 + XPT2046) payment fl...">
<polygon fill="white" stroke="#666666" points="203.5,-74 141.5,-74 141.5,-55 203.5,-55 203.5,-74"/>
<text text-anchor="middle" x="172.5" y="-62" font-family="Helvetica,sans-Serif" font-size="10.00">main/ui.h</text>
</a>
</g>
</g>
<!-- Node1&#45;&gt;Node4 -->
<g id="edge3_Node000001_Node000004" class="edge">
<title>Node1&#45;&gt;Node4</title>
<g id="a_edge3_Node000001_Node000004"><a xlink:title=" ">
<path fill="none" stroke="#63b8ff" d="M106.68,-104.7C122.89,-95.04 144.05,-82.44 157.94,-74.17"/>
<polygon fill="#63b8ff" stroke="#63b8ff" points="104.6,-101.86 97.8,-109.98 108.18,-107.88 104.6,-101.86"/>
</a>
</g>
</g>
<!-- Node4&#45;&gt;Node2 -->
<g id="edge4_Node000004_Node000002" class="edge">
<title>Node4&#45;&gt;Node2</title>
<g id="a_edge4_Node000004_Node000002"><a xlink:title=" ">
<path fill="none" stroke="#63b8ff" d="M142.38,-51.03C118.71,-41.23 86.35,-27.83 65.44,-19.17"/>
<polygon fill="#63b8ff" stroke="#63b8ff" points="141.36,-54.39 151.93,-54.98 144.03,-47.93 141.36,-54.39"/>
</a>
</g>
</g>
<!-- Node5 -->
<g id="Node000005" class="node">
<title>Node5</title>
<g id="a_Node000005"><a xlink:href="ui_8cpp.html" target="_top" xlink:title="Touchscreen UI implementation built on LVGL 8.x.">
<polygon fill="white" stroke="#666666" points="209.5,-19 135.5,-19 135.5,0 209.5,0 209.5,-19"/>
<text text-anchor="middle" x="172.5" y="-7" font-family="Helvetica,sans-Serif" font-size="10.00">main/ui.cpp</text>
</a>
</g>
</g>
<!-- Node4&#45;&gt;Node5 -->
<g id="edge5_Node000004_Node000005" class="edge">
<title>Node4&#45;&gt;Node5</title>
<g id="a_edge5_Node000004_Node000005"><a xlink:title=" ">
<path fill="none" stroke="#63b8ff" d="M172.5,-44.66C172.5,-35.93 172.5,-25.99 172.5,-19.09"/>
<polygon fill="#63b8ff" stroke="#63b8ff" points="169,-44.75 172.5,-54.75 176,-44.75 169,-44.75"/>
</a>
</g>
</g>
</g>
</svg>
