<?xml version="1.0" encoding="UTF-8" standalone="no"?>
<!DOCTYPE svg PUBLIC "-//W3C//DTD SVG 1.1//EN"
 "http://www.w3.org/Graphics/SVG/1.1/DTD/svg11.dtd">
<!-- Generated by graphviz version 2.43.0 (0)
 -->
<!-- Title: main/tap_icon.h Pages: 1 -->
<svg width="828pt" height="137pt"
 viewBox="0.00 0.00 827.50 137.00" xmlns="http://www.w3.org/2000/svg" xmlns:xlink="http://www.w3.org/1999/xlink">
<g id="graph0" class="graph" transform="scale(1 1) rotate(0) translate(4 133)">
<title>main/tap_icon.h</title>
<!-- Node1 -->
<g id="Node000001" class="node">
<title>Node1</title>
<g id="a_Node000001"><a xlink:title=" ">
<polygon fill="#999999" stroke="#666666" points="429.5,-129 334.5,-129 334.5,-110 429.5,-110 429.5,-129"/>
<text text-anchor="middle" x="382" y="-117" font-family="Helvetica,sans-Serif" font-size="10.00">main/tap_icon.h</text>
</a>
</g>
</g>
<!-- Node2 -->
<g id="Node000002" class="node">
<title>Node2</title>
<g id="a_Node000002"><a xlink:href="ui__internal_8h.html" target="_top" xlink:title="Private to the ui*.cpp files: the state and helpers they share.">
<polygon fill="white" stroke="#666666" points="434.5,-74 329.5,-74 329.5,-55 434.5,-55 434.5,-74"/>
<text text-anchor="middle" x="382" y="-62" font-family="Helvetica,sans-Serif" font-size="10.00">main/ui_internal.h</text>
</a>
</g>
</g>
<!-- Node1&#45;&gt;Node2 -->
<g id="edge1_Node000001_Node000002" class="edge">
<title>Node1&#45;&gt;Node2</title>
<g id="a_edge1_Node000001_Node000002"><a xlink:title=" ">
<path fill="none" stroke="#63b8ff" d="M382,-99.66C382,-90.93 382,-80.99 382,-74.09"/>
<polygon fill="#63b8ff" stroke="#63b8ff" points="378.5,-99.75 382,-109.75 385.5,-99.75 378.5,-99.75"/>
</a>
</g>
</g>
<!-- Node3 -->
<g id="Node000003" class="node">
<title>Node3</title>
<g id="a_Node000003"><a xlink:href="ui_8cpp.html" target="_top" xlink:title="Touchscreen UI implementation built on LVGL 8.x.">
<polygon fill="white" stroke="#666666" points="74,-19 0,-19 0,0 74,0 74,-19"/>
<text text-anchor="middle" x="37" y="-7" font-family="Helvetica,sans-Serif" font-size="10.00">main/ui.cpp</text>
</a>
</g>
</g>
<!-- Node2&#45;&gt;Node3 -->
<g id="edge2_Node000002_Node000003" class="edge">
<title>Node2&#45;&gt;Node3</title>
<g id="a_edge2_Node000002_Node000003"><a xlink:title=" ">
<path fill="none" stroke="#63b8ff" d="M319.08,-54.79C258.51,-46.25 164.36,-32.57 83,-19 80.12,-18.52 77.13,-18.01 74.14,-17.48"/>
<polygon fill="#63b8ff" stroke="#63b8ff" points="318.86,-58.29 329.25,-56.22 319.84,-51.36 318.86,-58.29"/>
</a>
</g>
</g>
<!-- Node4 -->
<g id="Node000004" class="node">
<title>Node4</title>
<g id="a_Node000004"><a xlink:href="ui__admin_8cpp.html" target="_top" xlink:title="The settings page, touch calibration and the admin&#45;code screens.">
<polygon fill="white" stroke="#666666" points="202,-19 92,-19 92,0 202,0 202,-19"/>
<text text-anchor="middle" x="147" y="-7" font-family="Helvetica,sans-Serif" font-size="10.00">main/ui_admin.cpp</text>
</a>
</g>
</g>
<!-- Node2&#45;&gt;Node4 -->
<g id="edge3_Node000002_Node000004" class="edge">
<title>Node2&#45;&gt;Node4</title>
<g id="a_edge3_Node000002_Node000004"><a xlink:title=" ">
<path fill="none" stroke="#63b8ff" d="M334.35,-52.75C290.31,-42.82 225.73,-28.26 185.05,-19.08"/>
<polygon fill="#63b8ff" stroke="#63b8ff" points="333.72,-56.2 344.24,-54.98 335.26,-49.37 333.72,-56.2"/>
</a>
</g>
</g>
<!-- Node5 -->
<g id="Node000005" class="node">
<title>Node5</title>
<g id="a_Node000005"><a xlink:href="ui__hal_8cpp.html" target="_top" xlink:title="Panel and touch hardware: TFT_eSPI flush, XPT2046 reads, the LVGL display and input drivers,...">
<polygon fill="white" stroke="#666666" points="314,-19 220,-19 220,0 314,0 314,-19"/>
<text text-anchor="middle" x="267" y="-7" font-family="Helvetica,sans-Serif" font-size="10.00">main/ui_hal.cpp</text>
</a>
</g>
</g>
<!-- Node2&#45;&gt;Node5 -->
<g id="edge4_Node000002_Node000005" class="edge">
<title>Node2&#45;&gt;Node5</title>
<g id="a_edge4_Node000002_Node000005"><a xlink:title=" ">
<path fill="none" stroke="#63b8ff" d="M354.37,-50.77C333.16,-40.99 304.44,-27.75 285.81,-19.17"/>
<polygon fill="#63b8ff" stroke="#63b8ff" points="352.98,-53.98 363.52,-54.98 355.91,-47.62 352.98,-53.98"/>
</a>
</g>
</g>
<!-- Node6 -->
<g id="Node000006" class="node">
<title>Node6</title>
<g id="a_Node000006"><a xlink:href="ui__sale_8cpp.html" target="_top" xlink:title="The sale flow: amount, confirm, PIN, transaction status, and their page chrome.">
<polygon fill="white" stroke="#666666" points="431.5,-19 332.5,-19 332.5,0 431.5,0 431.5,-19"/>
<text text-anchor="middle" x="382" y="-7" font-family="Helvetica,sans-Serif" font-size="10.00">main/ui_sale.cpp</text>
</a>
</g>
</g>
<!-- Node2&#45;&gt;Node6 -->
<g id="edge5_Node000002_Node000006" class="edge">
<title>Node2&#45;&gt;Node6</title>
<g id="a_edge5_Node000002_Node000006"><a xlink:title=" ">
<path fill="none" stroke="#63b8ff" d="M382,-44.66C382,-35.93 382,-25.99 382,-19.09"/>
<polygon fill="#63b8ff" stroke="#63b8ff" points="378.5,-44.75 382,-54.75 385.5,-44.75 378.5,-44.75"/>
</a>
</g>
</g>
<!-- Node7 -->
<g id="Node000007" class="node">
<title>Node7</title>
<g id="a_Node000007"><a xlink:href="ui__setup_8cpp.html" target="_top" xlink:title="First&#45;run setup on the panel: welcome, the browser hand&#45;off, card reads, Wi&#45;Fi.">
<polygon fill="white" stroke="#666666" points="556,-19 450,-19 450,0 556,0 556,-19"/>
<text text-anchor="middle" x="503" y="-7" font-family="Helvetica,sans-Serif" font-size="10.00">main/ui_setup.cpp</text>
</a>
</g>
</g>
<!-- Node2&#45;&gt;Node7 -->
<g id="edge6_Node000002_Node000007" class="edge">
<title>Node2&#45;&gt;Node7</title>
<g id="a_edge6_Node000002_Node000007"><a xlink:title=" ">
<path fill="none" stroke="#63b8ff" d="M410.77,-50.9C433.12,-41.11 463.52,-27.79 483.21,-19.17"/>
<polygon fill="#63b8ff" stroke="#63b8ff" points="409.2,-47.77 401.44,-54.98 412,-54.18 409.2,-47.77"/>
</a>
</g>
</g>
<!-- Node8 -->
<g id="Node000008" class="node">
<title>Node8</title>
<g id="a_Node000008"><a xlink:href="ui__theme_8cpp.html" target="_top" xlink:title="Colours, the LVGL theme and the shared layout metrics.">
<polygon fill="white" stroke="#666666" points="684,-19 574,-19 574,0 684,0 684,-19"/>
<text text-anchor="middle" x="629" y="-7" font-family="Helvetica,sans-Serif" font-size="10.00">main/ui_theme.cpp</text>
</a>
</g>
</g>
<!-- Node2&#45;&gt;Node8 -->
<g id="edge7_Node000002_Node000008" class="edge">
<title>Node2&#45;&gt;Node8</title>
<g id="a_edge7_Node000002_Node000008"><a xlink:title=" ">
<path fill="none" stroke="#63b8ff" d="M431.5,-52.88C477.8,-42.94 546.07,-28.3 589,-19.08"/>
<polygon fill="#63b8ff" stroke="#63b8ff" points="430.73,-49.46 421.68,-54.98 432.2,-56.31 430.73,-49.46"/>
</a>
</g>
</g>
<!-- Node9 -->
<g id="Node000009" class="node">
<title>Node9</title>
<g id="a_Node000009"><a xlink:href="ui__widgets_8cpp.html" target="_top" xlink:title="Widget helpers shared by every screen, and the Wi&#45;Fi signal mark.">
<polygon fill="white" stroke="#666666" points="819.5,-19 702.5,-19 702.5,0 819.5,0 819.5,-19"/>
<text text-anchor="middle" x="761" y="-7" font-family="Helvetica,sans-Serif" font-size="10.00">main/ui_widgets.cpp</text>
</a>
</g>
</g>
<!-- Node2&#45;&gt;Node9 -->
<g id="edge8_Node000002_Node000009" class="edge">
<title>Node2&#45;&gt;Node9</title>
<g id="a_edge8_Node000002_Node000009"><a xlink:title=" ">
<path fill="none" stroke="#63b8ff" d="M444.92,-54.7C516.49,-44.69 632.42,-28.48 702.22,-18.72"/>
<polygon fill="#63b8ff" stroke="#63b8ff" points="444.12,-51.28 434.7,-56.13 445.09,-58.21 444.12,-51.28"/>
</a>
</g>
</g>
</g>
</svg>
