<?xml version="1.0" encoding="UTF-8" standalone="no"?>
<!DOCTYPE svg PUBLIC "-//W3C//DTD SVG 1.1//EN"
 "http://www.w3.org/Graphics/SVG/1.1/DTD/svg11.dtd">
<!-- Generated by graphviz version 2.43.0 (0)
 -->
<!-- Title: main/ui.h Pages: 1 -->
<svg width="190pt" height="82pt"
 viewBox="0.00 0.00 189.50 82.00" xmlns="http://www.w3.org/2000/svg" xmlns:xlink="http://www.w3.org/1999/xlink">
<g id="graph0" class="graph" transform="scale(1 1) rotate(0) translate(4 78)">
<title>main/ui.h</title>
<!-- Node1 -->
<g id="Node000001" class="node">
<title>Node1</title>
<g id="a_Node000001"><a xlink:title="Touchscreen UI API: screens, events and transaction states for the CYD (ILI9341 + XPT2046) payment fl...">
<polygon fill="#999999" stroke="#666666" points="125.5,-74 63.5,-74 63.5,-55 125.5,-55 125.5,-74"/>
<text text-anchor="middle" x="94.5" y="-62" font-family="Helvetica,sans-Serif" font-size="10.00">main/ui.h</text>
</a>
</g>
</g>
<!-- Node2 -->
<g id="Node000002" class="node">
<title>Node2</title>
<g id="a_Node000002"><a xlink:href="main_8cpp.html" target="_top" xlink:title="cryptnox&#45;pos entry point: touchscreen USDC payment terminal.">
<polygon fill="white" stroke="#666666" points="89,-19 0,-19 0,0 89,0 89,-19"/>
<text text-anchor="middle" x="44.5" y="-7" font-family="Helvetica,sans-Serif" font-size="10.00">main/main.cpp</text>
</a>
</g>
</g>
<!-- Node1&#45;&gt;Node2 -->
<g id="edge1_Node000001_Node000002" class="edge">
<title>Node1&#45;&gt;Node2</title>
<g id="a_edge1_Node000001_Node000002"><a xlink:title=" ">
<path fill="none" stroke="#63b8ff" d="M79.16,-47.24C70.4,-37.95 59.76,-26.68 52.6,-19.09"/>
<polygon fill="#63b8ff" stroke="#63b8ff" points="76.84,-49.88 86.24,-54.75 81.93,-45.07 76.84,-49.88"/>
</a>
</g>
</g>
<!-- Node3 -->
<g id="Node000003" class="node">
<title>Node3</title>
<g id="a_Node000003"><a xlink:href="ui_8cpp.html" target="_top" xlink:title="Touchscreen UI implementation built on LVGL 8.x.">
<polygon fill="white" stroke="#666666" points="181.5,-19 107.5,-19 107.5,0 181.5,0 181.5,-19"/>
<text text-anchor="middle" x="144.5" y="-7" font-family="Helvetica,sans-Serif" font-size="10.00">main/ui.cpp</text>
</a>
</g>
</g>
<!-- Node1&#45;&gt;Node3 -->
<g id="edge2_Node000001_Node000003" class="edge">
<title>Node1&#45;&gt;Node3</title>
<g id="a_edge2_Node000001_Node000003"><a xlink:title=" ">
<path fill="none" stroke="#63b8ff" d="M109.84,-47.24C118.6,-37.95 129.24,-26.68 136.4,-19.09"/>
<polygon fill="#63b8ff" stroke="#63b8ff" points="107.07,-45.07 102.76,-54.75 112.16,-49.88 107.07,-45.07"/>
</a>
</g>
</g>
</g>
</svg>
