  0
SECTION
  2
HEADER
  9
$ACADVER
  1
AC1024
  9
$ACADMAINTVER
 70
6
  9
$DWGCODEPAGE
  3
ANSI_1252
  9
$LASTSAVEDBY
  1
ezdxf
  9
$INSBASE
 10
0.0
 20
0.0
 30
0.0
  9
$EXTMIN
 10
1e+20
 20
1e+20
 30
1e+20
  9
$EXTMAX
 10
-1e+20
 20
-1e+20
 30
-1e+20
  9
$LIMMIN
 10
0.0
 20
0.0
  9
$LIMMAX
 10
420.0
 20
297.0
  9
$ORTHOMODE
 70
0
  9
$REGENMODE
 70
1
  9
$FILLMODE
 70
1
  9
$QTEXTMODE
 70
0
  9
$MIRRTEXT
 70
1
  9
$LTSCALE
 40
1.0
  9
$ATTMODE
 70
1
  9
$TEXTSIZE
 40
2.5
  9
$TRACEWID
 40
1.0
  9
$TEXTSTYLE
  7
Standard
  9
$CLAYER
  8
0
  9
$CELTYPE
  6
ByLayer
  9
$CECOLOR
 62
256
  9
$CELTSCALE
 40
1.0
  9
$DISPSILH
 70
0
  9
$DIMSCALE
 40
1.0
  9
$DIMASZ
 40
2.5
  9
$DIMEXO
 40
0.625
  9
$DIMDLI
 40
3.75
  9
$DIMRND
 40
0.0
  9
$DIMDLE
 40
0.0
  9
$DIMEXE
 40
1.25
  9
$DIMTP
 40
0.0
  9
$DIMTM
 40
0.0
  9
$DIMTXT
 40
2.5
  9
$DIMCEN
 40
2.5
  9
$DIMTSZ
 40
0.0
  9
$DIMTOL
 70
0
  9
$DIMLIM
 70
0
  9
$DIMTIH
 70
0
  9
$DIMTOH
 70
0
  9
$DIMSE1
 70
0
  9
$DIMSE2
 70
0
  9
$DIMTAD
 70
1
  9
$DIMZIN
 70
8
  9
$DIMBLK
  1

  9
$DIMASO
 70
1
  9
$DIMSHO
 70
1
  9
$DIMPOST
  1

  9
$DIMAPOST
  1

  9
$DIMALT
 70
0
  9
$DIMALTD
 70
3
  9
$DIMALTF
 40
0.03937007874
  9
$DIMLFAC
 40
1.0
  9
$DIMTOFL
 70
1
  9
$DIMTVP
 40
0.0
  9
$DIMTIX
 70
0
  9
$DIMSOXD
 70
0
  9
$DIMSAH
 70
0
  9
$DIMBLK1
  1

  9
$DIMBLK2
  1

  9
$DIMSTYLE
  2
ISO-25
  9
$DIMCLRD
 70
0
  9
$DIMCLRE
 70
0
  9
$DIMCLRT
 70
0
  9
$DIMTFAC
 40
1.0
  9
$DIMGAP
 40
0.625
  9
$DIMJUST
 70
0
  9
$DIMSD1
 70
0
  9
$DIMSD2
 70
0
  9
$DIMTOLJ
 70
0
  9
$DIMTZIN
 70
8
  9
$DIMALTZ
 70
0
  9
$DIMALTTZ
 70
0
  9
$DIMUPT
 70
0
  9
$DIMDEC
 70
2
  9
$DIMTDEC
 70
2
  9
$DIMALTU
 70
2
  9
$DIMALTTD
 70
3
  9
$DIMTXSTY
  7
Standard
  9
$DIMAUNIT
 70
0
  9
$DIMADEC
 70
0
  9
$DIMALTRND
 40
0.0
  9
$DIMAZIN
 70
0
  9
$DIMDSEP
 70
44
  9
$DIMATFIT
 70
3
  9
$DIMFRAC
 70
0
  9
$DIMLDRBLK
  1

  9
$DIMLUNIT
 70
2
  9
$DIMLWD
 70
-2
  9
$DIMLWE
 70
-2
  9
$DIMTMOVE
 70
0
  9
$DIMFXL
 40
1.0
  9
$DIMFXLON
 70
0
  9
$DIMJOGANG
 40
0.785398163397
  9
$DIMTFILL
 70
0
  9
$DIMTFILLCLR
 70
0
  9
$DIMARCSYM
 70
0
  9
$DIMLTYPE
  6

  9
$DIMLTEX1
  6

  9
$DIMLTEX2
  6

  9
$DIMTXTDIRECTION
 70
0
  9
$LUNITS
 70
2
  9
$LUPREC
 70
4
  9
$SKETCHINC
 40
1.0
  9
$FILLETRAD
 40
10.0
  9
$AUNITS
 70
0
  9
$AUPREC
 70
2
  9
$MENU
  1
.
  9
$ELEVATION
 40
0.0
  9
$PELEVATION
 40
0.0
  9
$THICKNESS
 40
0.0
  9
$LIMCHECK
 70
0
  9
$CHAMFERA
 40
0.0
  9
$CHAMFERB
 40
0.0
  9
$CHAMFERC
 40
0.0
  9
$CHAMFERD
 40
0.0
  9
$SKPOLY
 70
0
  9
$TDCREATE
 40
2461245.3180555557
  9
$TDUCREATE
 40
2458532.153996898
  9
$TDUPDATE
 40
2461245.3180555557
  9
$TDUUPDATE
 40
2458532.1544311
  9
$TDINDWG
 40
0.0
  9
$TDUSRTIMER
 40
0.0
  9
$USRTIMER
 70
1
  9
$ANGBASE
 50
0.0
  9
$ANGDIR
 70
0
  9
$PDMODE
 70
0
  9
$PDSIZE
 40
0.0
  9
$PLINEWID
 40
0.0
  9
$SPLFRAME
 70
0
  9
$SPLINETYPE
 70
6
  9
$SPLINESEGS
 70
8
  9
$HANDSEED
  5
B2
  9
$SURFTAB1
 70
6
  9
$SURFTAB2
 70
6
  9
$SURFTYPE
 70
6
  9
$SURFU
 70
6
  9
$SURFV
 70
6
  9
$UCSBASE
  2

  9
$UCSNAME
  2

  9
$UCSORG
 10
0.0
 20
0.0
 30
0.0
  9
$UCSXDIR
 10
1.0
 20
0.0
 30
0.0
  9
$UCSYDIR
 10
0.0
 20
1.0
 30
0.0
  9
$UCSORTHOREF
  2

  9
$UCSORTHOVIEW
 70
0
  9
$UCSORGTOP
 10
0.0
 20
0.0
 30
0.0
  9
$UCSORGBOTTOM
 10
0.0
 20
0.0
 30
0.0
  9
$UCSORGLEFT
 10
0.0
 20
0.0
 30
0.0
  9
$UCSORGRIGHT
 10
0.0
 20
0.0
 30
0.0
  9
$UCSORGFRONT
 10
0.0
 20
0.0
 30
0.0
  9
$UCSORGBACK
 10
0.0
 20
0.0
 30
0.0
  9
$PUCSBASE
  2

  9
$PUCSNAME
  2

  9
$PUCSORG
 10
0.0
 20
0.0
 30
0.0
  9
$PUCSXDIR
 10
1.0
 20
0.0
 30
0.0
  9
$PUCSYDIR
 10
0.0
 20
1.0
 30
0.0
  9
$PUCSORTHOREF
  2

  9
$PUCSORTHOVIEW
 70
0
  9
$PUCSORGTOP
 10
0.0
 20
0.0
 30
0.0
  9
$PUCSORGBOTTOM
 10
0.0
 20
0.0
 30
0.0
  9
$PUCSORGLEFT
 10
0.0
 20
0.0
 30
0.0
  9
$PUCSORGRIGHT
 10
0.0
 20
0.0
 30
0.0
  9
$PUCSORGFRONT
 10
0.0
 20
0.0
 30
0.0
  9
$PUCSORGBACK
 10
0.0
 20
0.0
 30
0.0
  9
$USERI1
 70
0
  9
$USERI2
 70
0
  9
$USERI3
 70
0
  9
$USERI4
 70
0
  9
$USERI5
 70
0
  9
$USERR1
 40
0.0
  9
$USERR2
 40
0.0
  9
$USERR3
 40
0.0
  9
$USERR4
 40
0.0
  9
$USERR5
 40
0.0
  9
$WORLDVIEW
 70
1
  9
$SHADEDGE
 70
3
  9
$SHADEDIF
 70
70
  9
$TILEMODE
 70
1
  9
$MAXACTVP
 70
64
  9
$PINSBASE
 10
0.0
 20
0.0
 30
0.0
  9
$PLIMCHECK
 70
0
  9
$PEXTMIN
 10
1e+20
 20
1e+20
 30
1e+20
  9
$PEXTMAX
 10
-1e+20
 20
-1e+20
 30
-1e+20
  9
$PLIMMIN
 10
0.0
 20
0.0
  9
$PLIMMAX
 10
420.0
 20
297.0
  9
$UNITMODE
 70
0
  9
$VISRETAIN
 70
1
  9
$PLINEGEN
 70
0
  9
$PSLTSCALE
 70
1
  9
$TREEDEPTH
 70
3020
  9
$CMLSTYLE
  2
Standard
  9
$CMLJUST
 70
0
  9
$CMLSCALE
 40
20.0
  9
$PROXYGRAPHICS
 70
1
  9
$MEASUREMENT
 70
1
  9
$CELWEIGHT
370
-1
  9
$ENDCAPS
280
0
  9
$JOINSTYLE
280
0
  9
$LWDISPLAY
290
0
  9
$INSUNITS
 70
4
  9
$HYPERLINKBASE
  1

  9
$STYLESHEET
  1

  9
$XEDIT
290
1
  9
$CEPSNTYPE
380
0
  9
$PSTYLEMODE
290
1
  9
$FINGERPRINTGUID
  2
{8431BA81-6697-4145-A1CA-A790F843E61B}
  9
$VERSIONGUID
  2
{0F1D8867-2994-40DA-9602-3FB4C9AE103E}
  9
$EXTNAMES
290
1
  9
$PSVPSCALE
 40
0.0
  9
$OLESTARTUP
290
0
  9
$SORTENTS
280
127
  9
$INDEXCTL
280
0
  9
$HIDETEXT
280
1
  9
$XCLIPFRAME
280
1
  9
$HALOGAP
280
0
  9
$OBSCOLOR
 70
257
  9
$OBSLTYPE
280
0
  9
$INTERSECTIONDISPLAY
280
0
  9
$INTERSECTIONCOLOR
 70
257
  9
$DIMASSOC
280
2
  9
$PROJECTNAME
  1

  9
$CAMERADISPLAY
290
0
  9
$LENSLENGTH
 40
50.0
  9
$CAMERAHEIGHT
 40
0.0
  9
$STEPSPERSEC
 40
24.0
  9
$STEPSIZE
 40
100.0
  9
$3DDWFPREC
 40
2.0
  9
$PSOLWIDTH
 40
0.005
  9
$PSOLHEIGHT
 40
0.08
  9
$LOFTANG1
 40
1.570796326795
  9
$LOFTANG2
 40
1.570796326795
  9
$LOFTMAG1
 40
0.0
  9
$LOFTMAG2
 40
0.0
  9
$LOFTPARAM
 70
7
  9
$LOFTNORMALS
280
1
  9
$LATITUDE
 40
37.795
  9
$LONGITUDE
 40
-122.394
  9
$NORTHDIRECTION
 40
0.0
  9
$TIMEZONE
 70
-8000
  9
$LIGHTGLYPHDISPLAY
280
1
  9
$TILEMODELIGHTSYNCH
280
1
  9
$CMATERIAL
347
20
  9
$SOLIDHIST
280
0
  9
$SHOWHIST
280
1
  9
$DWFFRAME
280
2
  9
$DGNFRAME
280
2
  9
$REALWORLDSCALE
290
1
  9
$INTERFERECOLOR
 62
256
  9
$CSHADOW
280
0
  9
$SHADOWPLANELOCATION
 40
0.0
  0
ENDSEC
  0
SECTION
  2
CLASSES
  0
CLASS
  1
ACDBDICTIONARYWDFLT
  2
AcDbDictionaryWithDefault
  3
ObjectDBX Classes
 90
0
 91
0
280
0
281
0
  0
CLASS
  1
SUN
  2
AcDbSun
  3
SCENEOE
 90
1153
 91
0
280
0
281
0
  0
CLASS
  1
VISUALSTYLE
  2
AcDbVisualStyle
  3
ObjectDBX Classes
 90
4095
 91
0
280
0
281
0
  0
CLASS
  1
MATERIAL
  2
AcDbMaterial
  3
ObjectDBX Classes
 90
1153
 91
0
280
0
281
0
  0
CLASS
  1
SCALE
  2
AcDbScale
  3
ObjectDBX Classes
 90
1153
 91
0
280
0
281
0
  0
CLASS
  1
TABLESTYLE
  2
AcDbTableStyle
  3
ObjectDBX Classes
 90
4095
 91
0
280
0
281
0
  0
CLASS
  1
MLEADERSTYLE
  2
AcDbMLeaderStyle
  3
ACDB_MLEADERSTYLE_CLASS
 90
4095
 91
0
280
0
281
0
  0
CLASS
  1
DICTIONARYVAR
  2
AcDbDictionaryVar
  3
ObjectDBX Classes
 90
0
 91
0
280
0
281
0
  0
CLASS
  1
CELLSTYLEMAP
  2
AcDbCellStyleMap
  3
ObjectDBX Classes
 90
1152
 91
0
280
0
281
0
  0
CLASS
  1
MENTALRAYRENDERSETTINGS
  2
AcDbMentalRayRenderSettings
  3
SCENEOE
 90
1024
 91
0
280
0
281
0
  0
CLASS
  1
ACDBDETAILVIEWSTYLE
  2
AcDbDetailViewStyle
  3
ObjectDBX Classes
 90
1025
 91
0
280
0
281
0
  0
CLASS
  1
ACDBSECTIONVIEWSTYLE
  2
AcDbSectionViewStyle
  3
ObjectDBX Classes
 90
1025
 91
0
280
0
281
0
  0
CLASS
  1
RASTERVARIABLES
  2
AcDbRasterVariables
  3
ISM
 90
0
 91
0
280
0
281
0
  0
CLASS
  1
LAYOUT
  2
AcDbLayout
  3
ObjectDBX Classes
 90
0
 91
0
280
0
281
0
  0
CLASS
  1
ACDBPLACEHOLDER
  2
AcDbPlaceHolder
  3
ObjectDBX Classes
 90
0
 91
0
280
0
281
0
  0
ENDSEC
  0
SECTION
  2
TABLES
  0
TABLE
  2
VPORT
  5
8
330
0
100
AcDbSymbolTable
 70
1
  0
VPORT
  5
23
330
8
100
AcDbSymbolTableRecord
100
AcDbViewportTableRecord
  2
*Active
 70
0
 10
0.0
 20
0.0
 11
1.0
 21
1.0
 12
0.0
 22
0.0
 13
0.0
 23
0.0
 14
0.5
 24
0.5
 15
0.5
 25
0.5
 16
0.0
 26
0.0
 36
1.0
 17
0.0
 27
0.0
 37
0.0
 40
1000.0
 41
1.34
 42
50.0
 43
0.0
 44
0.0
 50
0.0
 51
0.0
 71
0
 72
1000
 73
1
 74
3
 75
0
 76
0
 77
0
 78
0
281
0
 65
0
146
0.0
  0
ENDTAB
  0
TABLE
  2
LTYPE
  5
2
330
0
100
AcDbSymbolTable
 70
3
  0
LTYPE
  5
24
330
2
100
AcDbSymbolTableRecord
100
AcDbLinetypeTableRecord
  2
ByBlock
 70
0
  3

 72
65
 73
0
 40
0.0
  0
LTYPE
  5
25
330
2
100
AcDbSymbolTableRecord
100
AcDbLinetypeTableRecord
  2
ByLayer
 70
0
  3

 72
65
 73
0
 40
0.0
  0
LTYPE
  5
26
330
2
100
AcDbSymbolTableRecord
100
AcDbLinetypeTableRecord
  2
Continuous
 70
0
  3

 72
65
 73
0
 40
0.0
  0
ENDTAB
  0
TABLE
  2
LAYER
  5
1
330
0
100
AcDbSymbolTable
 70
2
  0
LAYER
  5
27
330
1
100
AcDbSymbolTableRecord
100
AcDbLayerTableRecord
  2
0
 70
0
 62
7
  6
Continuous
370
-3
390
13
347
21
  0
LAYER
  5
28
330
1
100
AcDbSymbolTableRecord
100
AcDbLayerTableRecord
  2
Defpoints
 70
0
 62
7
  6
Continuous
290
0
370
-3
390
13
347
21
  0
ENDTAB
  0
TABLE
  2
STYLE
  5
5
330
0
100
AcDbSymbolTable
 70
1
  0
STYLE
  5
29
330
5
100
AcDbSymbolTableRecord
100
AcDbTextStyleTableRecord
  2
Standard
 70
0
 40
0.0
 41
1.0
 50
0.0
 71
0
 42
2.5
  3
txt
  4

  0
ENDTAB
  0
TABLE
  2
VIEW
  5
7
330
0
100
AcDbSymbolTable
 70
0
  0
ENDTAB
  0
TABLE
  2
UCS
  5
6
330
0
100
AcDbSymbolTable
 70
0
  0
ENDTAB
  0
TABLE
  2
APPID
  5
3
330
0
100
AcDbSymbolTable
 70
3
  0
APPID
  5
2A
330
3
100
AcDbSymbolTableRecord
100
AcDbRegAppTableRecord
  2
ACAD
 70
0
  0
APPID
  5
AF
330
3
100
AcDbSymbolTableRecord
100
AcDbRegAppTableRecord
  2
HATCHBACKGROUNDCOLOR
 70
0
  0
APPID
  5
B0
330
3
100
AcDbSymbolTableRecord
100
AcDbRegAppTableRecord
  2
EZDXF
 70
0
  0
ENDTAB
  0
TABLE
  2
DIMSTYLE
  5
4
330
0
100
AcDbSymbolTable
 70
1
100
AcDbDimStyleTable
  0
DIMSTYLE
105
2B
330
4
100
AcDbSymbolTableRecord
100
AcDbDimStyleTableRecord
  2
Standard
 70
0
 40
1.0
 41
2.5
 42
0.625
 43
3.75
 44
1.25
 45
0.0
 46
0.0
 47
0.0
 48
0.0
 49
2.5
140
2.5
141
2.5
142
0.0
143
0.03937007874
144
1.0
145
0.0
146
1.0
147
0.625
148
0.0
 69
0
 70
0
 71
0
 72
0
 73
0
 74
0
 75
0
 76
0
 77
1
 78
8
 79
3
170
0
171
3
172
1
173
0
174
0
175
0
176
0
177
0
178
0
179
2
271
2
272
2
273
2
274
3
275
0
276
0
277
2
278
44
279
0
280
0
281
0
282
0
283
0
284
8
285
0
286
0
288
0
289
3
290
0
371
-2
372
-2
  0
ENDTAB
  0
TABLE
  2
BLOCK_RECORD
  5
9
330
0
100
AcDbSymbolTable
 70
2
  0
BLOCK_RECORD
  5
17
330
9
100
AcDbSymbolTableRecord
100
AcDbBlockTableRecord
  2
*Model_Space
340
1A
 70
0
280
1
281
0
  0
BLOCK_RECORD
  5
1B
330
9
100
AcDbSymbolTableRecord
100
AcDbBlockTableRecord
  2
*Paper_Space
340
1E
 70
0
280
1
281
0
  0
ENDTAB
  0
ENDSEC
  0
SECTION
  2
BLOCKS
  0
BLOCK
  5
18
330
17
100
AcDbEntity
  8
0
100
AcDbBlockBegin
  2
*Model_Space
 70
0
 10
0.0
 20
0.0
 30
0.0
  3
*Model_Space
  1

  0
ENDBLK
  5
19
330
17
100
AcDbEntity
  8
0
100
AcDbBlockEnd
  0
BLOCK
  5
1C
330
1B
100
AcDbEntity
  8
0
100
AcDbBlockBegin
  2
*Paper_Space
 70
0
 10
0.0
 20
0.0
 30
0.0
  3
*Paper_Space
  1

  0
ENDBLK
  5
1D
330
1B
100
AcDbEntity
  8
0
100
AcDbBlockEnd
  0
ENDSEC
  0
SECTION
  2
ENTITIES
  0
SPLINE
  5
2F
330
17
100
AcDbEntity
  8
CRYPTNOX_LOGO
100
AcDbSpline
 70
0
 71
3
 72
11
 73
7
 74
0
 40
0.0
 40
0.0
 40
0.0
 40
0.0
 40
1.0
 40
1.0
 40
1.0
 40
2.0
 40
2.0
 40
2.0
 40
2.0
 10
23.479058129151483
 20
8.578264004622444
 30
0.0
 10
24.7362389154446
 20
8.674771862300812
 30
0.0
 10
25.694202365660203
 20
9.759518272504572
 30
0.0
 10
25.694202365660203
 20
11.126625376648057
 30
0.0
 10
25.694202365660203
 20
12.751070850424757
 30
0.0
 10
24.511372264377087
 20
13.842980139723894
 30
0.0
 10
22.75135736558857
 20
13.842980139723894
 30
0.0
  0
POLYLINE
  5
30
330
17
100
AcDbEntity
  8
CRYPTNOX_LOGO
100
AcDb2dPolyline
 66
1
 10
0.0
 20
0.0
 30
0.0
 70
0
  0
VERTEX
  5
31
330
30
100
AcDbEntity
  8
CRYPTNOX_LOGO
100
AcDbVertex
100
AcDb2dVertex
 10
22.75135736558857
 20
13.842980139723894
 30
0.0
 70
0
  0
VERTEX
  5
32
330
30
100
AcDbEntity
  8
CRYPTNOX_LOGO
100
AcDbVertex
100
AcDb2dVertex
 10
19.780147364299253
 20
13.842980139723894
 30
0.0
 70
0
  0
VERTEX
  5
33
330
30
100
AcDbEntity
  8
CRYPTNOX_LOGO
100
AcDbVertex
100
AcDb2dVertex
 10
19.780147364299253
 20
4.737814748845582
 30
0.0
 70
0
  0
VERTEX
  5
34
330
30
100
AcDbEntity
  8
CRYPTNOX_LOGO
100
AcDbVertex
100
AcDb2dVertex
 10
21.019611962963136
 20
4.737814748845582
 30
0.0
 70
0
  0
VERTEX
  5
35
330
30
100
AcDbEntity
  8
CRYPTNOX_LOGO
100
AcDbVertex
100
AcDb2dVertex
 10
21.019611962963136
 20
12.699259358301536
 30
0.0
 70
0
  0
VERTEX
  5
36
330
30
100
AcDbEntity
  8
CRYPTNOX_LOGO
100
AcDbVertex
100
AcDb2dVertex
 10
22.659242740422034
 20
12.699259358301536
 30
0.0
 70
0
  0
SEQEND
  5
37
330
30
100
AcDbEntity
  8
CRYPTNOX_LOGO
  0
SPLINE
  5
38
330
17
100
AcDbEntity
  8
CRYPTNOX_LOGO
100
AcDbSpline
 70
0
 71
3
 72
11
 73
7
 74
0
 40
0.0
 40
0.0
 40
0.0
 40
0.0
 40
1.0
 40
1.0
 40
1.0
 40
2.0
 40
2.0
 40
2.0
 40
2.0
 10
22.659242740422034
 20
12.699259358301536
 30
0.0
 10
23.734056624946874
 20
12.699259358301536
 30
0.0
 10
24.456504610506506
 20
12.066633876597917
 30
0.0
 10
24.456504610506506
 20
11.126625376648057
 30
0.0
 10
24.456504610506506
 20
10.186616876698197
 30
0.0
 10
23.734056624946874
 20
9.55399139499458
 30
0.0
 10
22.659242740422034
 20
9.55399139499458
 30
0.0
  0
POLYLINE
  5
39
330
17
100
AcDbEntity
  8
CRYPTNOX_LOGO
100
AcDb2dPolyline
 66
1
 10
0.0
 20
0.0
 30
0.0
 70
0
  0
VERTEX
  5
3A
330
39
100
AcDbEntity
  8
CRYPTNOX_LOGO
100
AcDbVertex
100
AcDb2dVertex
 10
22.659242740422034
 20
9.55399139499458
 30
0.0
 70
0
  0
VERTEX
  5
3B
330
39
100
AcDbEntity
  8
CRYPTNOX_LOGO
100
AcDbVertex
100
AcDb2dVertex
 10
21.141810680330256
 20
9.55399139499458
 30
0.0
 70
0
  0
VERTEX
  5
3C
330
39
100
AcDbEntity
  8
CRYPTNOX_LOGO
100
AcDbVertex
100
AcDb2dVertex
 10
25.115155219589994
 20
4.737814748845582
 30
0.0
 70
0
  0
VERTEX
  5
3D
330
39
100
AcDbEntity
  8
CRYPTNOX_LOGO
100
AcDbVertex
100
AcDb2dVertex
 10
26.68755043860696
 20
4.737814748845582
 30
0.0
 70
0
  0
VERTEX
  5
3E
330
39
100
AcDbEntity
  8
CRYPTNOX_LOGO
100
AcDbVertex
100
AcDb2dVertex
 10
23.479058129151483
 20
8.578264004622444
 30
0.0
 70
0
  0
SEQEND
  5
3F
330
39
100
AcDbEntity
  8
CRYPTNOX_LOGO
  0
POLYLINE
  5
40
330
17
100
AcDbEntity
  8
CRYPTNOX_LOGO
100
AcDb2dPolyline
 66
1
 10
0.0
 20
0.0
 30
0.0
 70
0
  0
VERTEX
  5
41
330
40
100
AcDbEntity
  8
CRYPTNOX_LOGO
100
AcDbVertex
100
AcDb2dVertex
 10
36.821066504944774
 20
13.842980139723894
 30
0.0
 70
0
  0
VERTEX
  5
42
330
40
100
AcDbEntity
  8
CRYPTNOX_LOGO
100
AcDbVertex
100
AcDb2dVertex
 10
34.3022639473194
 20
10.118712782874033
 30
0.0
 70
0
  0
VERTEX
  5
43
330
40
100
AcDbEntity
  8
CRYPTNOX_LOGO
100
AcDbVertex
100
AcDb2dVertex
 10
31.78164679365655
 20
13.842980139723894
 30
0.0
 70
0
  0
VERTEX
  5
44
330
40
100
AcDbEntity
  8
CRYPTNOX_LOGO
100
AcDbVertex
100
AcDb2dVertex
 10
30.29821453300416
 20
13.842980139723894
 30
0.0
 70
0
  0
VERTEX
  5
45
330
40
100
AcDbEntity
  8
CRYPTNOX_LOGO
100
AcDbVertex
100
AcDb2dVertex
 10
33.684871521825286
 20
8.765883684393994
 30
0.0
 70
0
  0
VERTEX
  5
46
330
40
100
AcDbEntity
  8
CRYPTNOX_LOGO
100
AcDbVertex
100
AcDb2dVertex
 10
33.684871521825286
 20
4.737814748845582
 30
0.0
 70
0
  0
VERTEX
  5
47
330
40
100
AcDbEntity
  8
CRYPTNOX_LOGO
100
AcDbVertex
100
AcDb2dVertex
 10
34.91960862028622
 20
4.737814748845582
 30
0.0
 70
0
  0
VERTEX
  5
48
330
40
100
AcDbEntity
  8
CRYPTNOX_LOGO
100
AcDbVertex
100
AcDb2dVertex
 10
34.91960862028622
 20
8.765883684393994
 30
0.0
 70
0
  0
VERTEX
  5
49
330
40
100
AcDbEntity
  8
CRYPTNOX_LOGO
100
AcDbVertex
100
AcDb2dVertex
 10
38.30449876559717
 20
13.842980139723894
 30
0.0
 70
0
  0
VERTEX
  5
4A
330
40
100
AcDbEntity
  8
CRYPTNOX_LOGO
100
AcDbVertex
100
AcDb2dVertex
 10
36.821066504944774
 20
13.842980139723894
 30
0.0
 70
0
  0
SEQEND
  5
4B
330
40
100
AcDbEntity
  8
CRYPTNOX_LOGO
  0
POLYLINE
  5
4C
330
17
100
AcDbEntity
  8
CRYPTNOX_LOGO
100
AcDb2dPolyline
 66
1
 10
0.0
 20
0.0
 30
0.0
 70
0
  0
VERTEX
  5
4D
330
4C
100
AcDbEntity
  8
CRYPTNOX_LOGO
100
AcDbVertex
100
AcDb2dVertex
 10
46.11041339362885
 20
13.842980139723894
 30
0.0
 70
0
  0
VERTEX
  5
4E
330
4C
100
AcDbEntity
  8
CRYPTNOX_LOGO
100
AcDbVertex
100
AcDb2dVertex
 10
43.17105432805031
 20
13.842980139723894
 30
0.0
 70
0
  0
VERTEX
  5
4F
330
4C
100
AcDbEntity
  8
CRYPTNOX_LOGO
100
AcDbVertex
100
AcDb2dVertex
 10
43.17105432805031
 20
4.737814748845582
 30
0.0
 70
0
  0
VERTEX
  5
50
330
4C
100
AcDbEntity
  8
CRYPTNOX_LOGO
100
AcDbVertex
100
AcDb2dVertex
 10
44.43105251345427
 20
4.737814748845582
 30
0.0
 70
0
  0
VERTEX
  5
51
330
4C
100
AcDbEntity
  8
CRYPTNOX_LOGO
100
AcDbVertex
100
AcDb2dVertex
 10
44.43105251345427
 20
8.529986199519609
 30
0.0
 70
0
  0
VERTEX
  5
52
330
4C
100
AcDbEntity
  8
CRYPTNOX_LOGO
100
AcDbVertex
100
AcDb2dVertex
 10
46.11041339362885
 20
8.529986199519609
 30
0.0
 70
0
  0
SEQEND
  5
53
330
4C
100
AcDbEntity
  8
CRYPTNOX_LOGO
  0
SPLINE
  5
54
330
17
100
AcDbEntity
  8
CRYPTNOX_LOGO
100
AcDbSpline
 70
0
 71
3
 72
11
 73
7
 74
0
 40
0.0
 40
0.0
 40
0.0
 40
0.0
 40
1.0
 40
1.0
 40
1.0
 40
2.0
 40
2.0
 40
2.0
 40
2.0
 10
46.11041339362885
 20
8.529986199519609
 30
0.0
 10
47.77353841452059
 20
8.529986199519609
 30
0.0
 10
48.97976725418192
 20
9.645150969615067
 30
0.0
 10
48.97976725418192
 20
11.180251464808773
 30
0.0
 10
48.97976725418192
 20
12.715351960002483
 30
0.0
 10
47.77353841452059
 20
13.842980139723894
 30
0.0
 10
46.11041339362885
 20
13.842980139723894
 30
0.0
  0
POLYLINE
  5
55
330
17
100
AcDbEntity
  8
CRYPTNOX_LOGO
100
AcDb2dPolyline
 66
1
 10
0.0
 20
0.0
 30
0.0
 70
0
  0
VERTEX
  5
56
330
55
100
AcDbEntity
  8
CRYPTNOX_LOGO
100
AcDbVertex
100
AcDb2dVertex
 10
44.43105251345427
 20
12.699259358301536
 30
0.0
 70
0
  0
VERTEX
  5
57
330
55
100
AcDbEntity
  8
CRYPTNOX_LOGO
100
AcDbVertex
100
AcDb2dVertex
 10
46.09599213038349
 20
12.699259358301536
 30
0.0
 70
0
  0
SEQEND
  5
58
330
55
100
AcDbEntity
  8
CRYPTNOX_LOGO
  0
SPLINE
  5
59
330
17
100
AcDbEntity
  8
CRYPTNOX_LOGO
100
AcDbSpline
 70
0
 71
3
 72
11
 73
7
 74
0
 40
0.0
 40
0.0
 40
0.0
 40
0.0
 40
1.0
 40
1.0
 40
1.0
 40
2.0
 40
2.0
 40
2.0
 40
2.0
 10
46.09599213038349
 20
12.699259358301536
 30
0.0
 10
47.21196869344309
 20
12.699259358301536
 30
0.0
 10
47.71594886659376
 20
11.911151647700953
 30
0.0
 10
47.71594886659376
 20
11.180251464808773
 30
0.0
 10
47.71594886659376
 20
10.449351281916595
 30
0.0
 10
47.20838725389541
 20
9.66124357131601
 30
0.0
 10
46.09599213038349
 20
9.66124357131601
 30
0.0
  0
POLYLINE
  5
5A
330
17
100
AcDbEntity
  8
CRYPTNOX_LOGO
100
AcDb2dPolyline
 66
1
 10
0.0
 20
0.0
 30
0.0
 70
0
  0
VERTEX
  5
5B
330
5A
100
AcDbEntity
  8
CRYPTNOX_LOGO
100
AcDbVertex
100
AcDb2dVertex
 10
46.09599213038349
 20
9.66124357131601
 30
0.0
 70
0
  0
VERTEX
  5
5C
330
5A
100
AcDbEntity
  8
CRYPTNOX_LOGO
100
AcDbVertex
100
AcDb2dVertex
 10
44.43105251345427
 20
9.66124357131601
 30
0.0
 70
0
  0
VERTEX
  5
5D
330
5A
100
AcDbEntity
  8
CRYPTNOX_LOGO
100
AcDbVertex
100
AcDb2dVertex
 10
44.43105251345427
 20
12.699259358301536
 30
0.0
 70
0
  0
SEQEND
  5
5E
330
5A
100
AcDbEntity
  8
CRYPTNOX_LOGO
  0
POLYLINE
  5
5F
330
17
100
AcDbEntity
  8
CRYPTNOX_LOGO
100
AcDb2dPolyline
 66
1
 10
0.0
 20
0.0
 30
0.0
 70
0
  0
VERTEX
  5
60
330
5F
100
AcDbEntity
  8
CRYPTNOX_LOGO
100
AcDbVertex
100
AcDb2dVertex
 10
53.689121496755206
 20
13.842980139723894
 30
0.0
 70
0
  0
VERTEX
  5
61
330
5F
100
AcDbEntity
  8
CRYPTNOX_LOGO
100
AcDbVertex
100
AcDb2dVertex
 10
53.689121496755206
 20
12.699259358301536
 30
0.0
 70
0
  0
VERTEX
  5
62
330
5F
100
AcDbEntity
  8
CRYPTNOX_LOGO
100
AcDbVertex
100
AcDb2dVertex
 10
56.21236503941971
 20
12.699259358301536
 30
0.0
 70
0
  0
VERTEX
  5
63
330
5F
100
AcDbEntity
  8
CRYPTNOX_LOGO
100
AcDbVertex
100
AcDb2dVertex
 10
56.21236503941971
 20
4.737814748845582
 30
0.0
 70
0
  0
VERTEX
  5
64
330
5F
100
AcDbEntity
  8
CRYPTNOX_LOGO
100
AcDbVertex
100
AcDb2dVertex
 10
57.44533529437045
 20
4.737814748845582
 30
0.0
 70
0
  0
VERTEX
  5
65
330
5F
100
AcDbEntity
  8
CRYPTNOX_LOGO
100
AcDbVertex
100
AcDb2dVertex
 10
57.44533529437045
 20
12.699259358301536
 30
0.0
 70
0
  0
VERTEX
  5
66
330
5F
100
AcDbEntity
  8
CRYPTNOX_LOGO
100
AcDbVertex
100
AcDb2dVertex
 10
59.96857883703494
 20
12.699259358301536
 30
0.0
 70
0
  0
VERTEX
  5
67
330
5F
100
AcDbEntity
  8
CRYPTNOX_LOGO
100
AcDbVertex
100
AcDb2dVertex
 10
59.96857883703494
 20
13.842980139723894
 30
0.0
 70
0
  0
VERTEX
  5
68
330
5F
100
AcDbEntity
  8
CRYPTNOX_LOGO
100
AcDbVertex
100
AcDb2dVertex
 10
53.689121496755206
 20
13.842980139723894
 30
0.0
 70
0
  0
SEQEND
  5
69
330
5F
100
AcDbEntity
  8
CRYPTNOX_LOGO
  0
POLYLINE
  5
6A
330
17
100
AcDbEntity
  8
CRYPTNOX_LOGO
100
AcDb2dPolyline
 66
1
 10
0.0
 20
0.0
 30
0.0
 70
0
  0
VERTEX
  5
6B
330
6A
100
AcDbEntity
  8
CRYPTNOX_LOGO
100
AcDbVertex
100
AcDb2dVertex
 10
71.60586974065602
 20
13.724649377068282
 30
0.0
 70
0
  0
VERTEX
  5
6C
330
6A
100
AcDbEntity
  8
CRYPTNOX_LOGO
100
AcDbVertex
100
AcDb2dVertex
 10
71.60586974065602
 20
7.393428297192628
 30
0.0
 70
0
  0
VERTEX
  5
6D
330
6A
100
AcDbEntity
  8
CRYPTNOX_LOGO
100
AcDbVertex
100
AcDb2dVertex
 10
65.46298462846146
 20
14.15691002946331
 30
0.0
 70
0
  0
VERTEX
  5
6E
330
6A
100
AcDbEntity
  8
CRYPTNOX_LOGO
100
AcDbVertex
100
AcDb2dVertex
 10
65.46298462846146
 20
4.699039696675946
 30
0.0
 70
0
  0
VERTEX
  5
6F
330
6A
100
AcDbEntity
  8
CRYPTNOX_LOGO
100
AcDbVertex
100
AcDb2dVertex
 10
66.69882003505035
 20
4.699039696675946
 30
0.0
 70
0
  0
VERTEX
  5
70
330
6A
100
AcDbEntity
  8
CRYPTNOX_LOGO
100
AcDbVertex
100
AcDb2dVertex
 10
66.69882003505035
 20
11.028493933041405
 30
0.0
 70
0
  0
VERTEX
  5
71
330
6A
100
AcDbEntity
  8
CRYPTNOX_LOGO
100
AcDbVertex
100
AcDb2dVertex
 10
72.8412276219719
 20
4.266831572060951
 30
0.0
 70
0
  0
VERTEX
  5
72
330
6A
100
AcDbEntity
  8
CRYPTNOX_LOGO
100
AcDbVertex
100
AcDb2dVertex
 10
72.8412276219719
 20
13.724649377068282
 30
0.0
 70
0
  0
VERTEX
  5
73
330
6A
100
AcDbEntity
  8
CRYPTNOX_LOGO
100
AcDbVertex
100
AcDb2dVertex
 10
71.60586974065602
 20
13.724649377068282
 30
0.0
 70
0
  0
SEQEND
  5
74
330
6A
100
AcDbEntity
  8
CRYPTNOX_LOGO
  0
SPLINE
  5
75
330
17
100
AcDbEntity
  8
CRYPTNOX_LOGO
100
AcDbSpline
 70
0
 71
3
 72
35
 73
31
 74
0
 40
0.0
 40
0.0
 40
0.0
 40
0.0
 40
1.0
 40
1.0
 40
1.0
 40
2.0
 40
2.0
 40
2.0
 40
3.0
 40
3.0
 40
3.0
 40
4.0
 40
4.0
 40
4.0
 40
5.0
 40
5.0
 40
5.0
 40
6.0
 40
6.0
 40
6.0
 40
7.0
 40
7.0
 40
7.0
 40
8.0
 40
8.0
 40
8.0
 40
9.0
 40
9.0
 40
9.0
 40
10.0
 40
10.0
 40
10.0
 40
10.0
 10
83.28279524193817
 20
13.842980139723894
 30
0.0
 10
82.36690176827607
 20
13.843362159942314
 30
0.0
 10
81.47106435608103
 20
13.576616542430507
 30
0.0
 10
80.70941154560605
 20
13.076599829045952
 30
0.0
 10
79.94775873513105
 20
12.576583115661395
 30
0.0
 10
79.35371729548785
 20
11.865643489181664
 30
0.0
 10
79.00273621981442
 20
11.033794463571985
 30
0.0
 10
78.65223266941402
 20
10.201993190489606
 30
0.0
 10
78.56007029172018
 20
9.286529489573235
 30
0.0
 10
78.73866474383156
 20
8.403298744586056
 30
0.0
 10
78.91725919594295
 20
7.5200679995988775
 30
0.0
 10
79.35801502294508
 20
6.708704808201974
 30
0.0
 10
80.00553929316709
 20
6.0718771040957344
 30
0.0
 10
80.65306356338908
 20
5.43500164746219
 30
0.0
 10
81.47822723517642
 20
5.001217689446214
 30
0.0
 10
82.3769297990096
 20
4.825440636445683
 30
0.0
 10
83.27515483756977
 20
4.649615830917853
 30
0.0
 10
84.20632911996867
 20
4.73967709741038
 30
0.0
 10
85.05298142904212
 20
5.084211581897973
 30
0.0
 10
85.89915621284256
 20
5.428746066385563
 30
0.0
 10
86.62260700147554
 20
6.012234197494902
 30
0.0
 10
87.13164894252027
 20
6.760946073070916
 30
0.0
 10
87.64021335829197
 20
7.5096579486469315
 30
0.0
 10
87.91192523864325
 20
8.389928036941354
 30
0.0
 10
87.91192523864325
 20
9.290397444284737
 30
0.0
 10
87.91049266282417
 20
10.497103809219102
 30
0.0
 10
87.42246183379254
 20
11.654004288176951
 30
0.0
 10
86.55479841270598
 20
12.507437456127365
 30
0.0
 10
85.6866574663464
 20
13.360870624077776
 30
0.0
 10
84.51003519361261
 20
13.841165543686397
 30
0.0
 10
83.28279524193817
 20
13.842980139723894
 30
0.0
  0
SPLINE
  5
76
330
17
100
AcDbEntity
  8
CRYPTNOX_LOGO
100
AcDbSpline
 70
0
 71
3
 72
29
 73
25
 74
0
 40
0.0
 40
0.0
 40
0.0
 40
0.0
 40
1.0
 40
1.0
 40
1.0
 40
2.0
 40
2.0
 40
2.0
 40
3.0
 40
3.0
 40
3.0
 40
4.0
 40
4.0
 40
4.0
 40
5.0
 40
5.0
 40
5.0
 40
6.0
 40
6.0
 40
6.0
 40
7.0
 40
7.0
 40
7.0
 40
8.0
 40
8.0
 40
8.0
 40
8.0
 10
83.28279524193817
 20
5.9091364910487885
 30
0.0
 10
82.59945657623929
 20
5.895956793513296
 30
0.0
 10
81.92757851709301
 20
6.0831467005391255
 30
0.0
 10
81.35263808837082
 20
6.446877701002325
 30
0.0
 10
80.77769765964862
 20
6.810560948938223
 30
0.0
 10
80.32643627663994
 20
7.334310668392124
 30
0.0
 10
80.05567944683472
 20
7.951321073667823
 30
0.0
 10
79.78444509175647
 20
8.56828372641622
 30
0.0
 10
79.70708599752642
 20
9.250571836514446
 30
0.0
 10
79.83219761905897
 20
9.911180299217335
 30
0.0
 10
79.95730924059156
 20
10.571788761920224
 30
0.0
 10
80.27963879988349
 20
11.180776742609101
 30
0.0
 10
80.75859664872763
 20
11.660498631890093
 30
0.0
 10
81.23707697229875
 20
12.140220521171083
 30
0.0
 10
81.85021942286295
 20
12.468901166594241
 30
0.0
 10
82.5197098556441
 20
12.604709354242573
 30
0.0
 10
83.18920028842525
 20
12.740517541890902
 30
0.0
 10
83.88447708594977
 20
12.677245443215082
 30
0.0
 10
84.517198072708
 20
12.42301098785653
 30
0.0
 10
85.14991905946621
 20
12.16872877997068
 30
0.0
 10
85.69143271907664
 20
11.735040327009306
 30
0.0
 10
86.07249788695066
 20
11.177099798006807
 30
0.0
 10
86.45356305482467
 20
10.619207021531613
 30
0.0
 10
86.65698882113335
 20
9.962371008485624
 30
0.0
 10
86.65651129586033
 20
9.290397444284737
 30
0.0
  0
SPLINE
  5
77
330
17
100
AcDbEntity
  8
CRYPTNOX_LOGO
100
AcDbSpline
 70
0
 71
3
 72
17
 73
13
 74
0
 40
0.0
 40
0.0
 40
0.0
 40
0.0
 40
1.0
 40
1.0
 40
1.0
 40
2.0
 40
2.0
 40
2.0
 40
3.0
 40
3.0
 40
3.0
 40
4.0
 40
4.0
 40
4.0
 40
4.0
 10
86.65651129586033
 20
9.290397444284737
 30
0.0
 10
86.66510675077478
 20
8.849450607173383
 30
0.0
 10
86.58440497963355
 20
8.411225664118273
 30
0.0
 10
86.41870370989383
 20
8.001317969753549
 30
0.0
 10
86.25300244015413
 20
7.591458027916127
 30
0.0
 10
86.00612187400017
 20
7.218128769465124
 30
0.0
 10
85.69191024434967
 20
6.903296356959691
 30
0.0
 10
85.37769861469918
 20
6.588416191926957
 30
0.0
 10
85.0028412753745
 20
6.338336206443725
 30
0.0
 10
84.58930438893478
 20
6.167620921337262
 30
0.0
 10
84.17528997722204
 20
5.9969533887581
 30
0.0
 10
83.73119147330871
 20
5.909040985994183
 30
0.0
 10
83.28279524193817
 20
5.9091364910487885
 30
0.0
  0
POLYLINE
  5
78
330
17
100
AcDbEntity
  8
CRYPTNOX_LOGO
100
AcDb2dPolyline
 66
1
 10
0.0
 20
0.0
 30
0.0
 70
0
  0
VERTEX
  5
79
330
78
100
AcDbEntity
  8
CRYPTNOX_LOGO
100
AcDbVertex
100
AcDb2dVertex
 10
96.75473824452159
 20
9.464646416411588
 30
0.0
 70
0
  0
VERTEX
  5
7A
330
78
100
AcDbEntity
  8
CRYPTNOX_LOGO
100
AcDbVertex
100
AcDb2dVertex
 10
99.76123736348745
 20
13.842980139723894
 30
0.0
 70
0
  0
VERTEX
  5
7B
330
78
100
AcDbEntity
  8
CRYPTNOX_LOGO
100
AcDbVertex
100
AcDb2dVertex
 10
98.24652719745191
 20
13.842980139723894
 30
0.0
 70
0
  0
VERTEX
  5
7C
330
78
100
AcDbEntity
  8
CRYPTNOX_LOGO
100
AcDbVertex
100
AcDb2dVertex
 10
95.99595058568474
 20
10.585159469564926
 30
0.0
 70
0
  0
VERTEX
  5
7D
330
78
100
AcDbEntity
  8
CRYPTNOX_LOGO
100
AcDbVertex
100
AcDb2dVertex
 10
93.74728407500966
 20
13.842980139723894
 30
0.0
 70
0
  0
VERTEX
  5
7E
330
78
100
AcDbEntity
  8
CRYPTNOX_LOGO
100
AcDbVertex
100
AcDb2dVertex
 10
92.23257390897412
 20
13.842980139723894
 30
0.0
 70
0
  0
VERTEX
  5
7F
330
78
100
AcDbEntity
  8
CRYPTNOX_LOGO
100
AcDbVertex
100
AcDb2dVertex
 10
95.23859550266697
 20
9.464646416411588
 30
0.0
 70
0
  0
VERTEX
  5
80
330
78
100
AcDbEntity
  8
CRYPTNOX_LOGO
100
AcDbVertex
100
AcDb2dVertex
 10
91.99381127246158
 20
4.737814748845582
 30
0.0
 70
0
  0
VERTEX
  5
81
330
78
100
AcDbEntity
  8
CRYPTNOX_LOGO
100
AcDbVertex
100
AcDb2dVertex
 10
93.5080439132241
 20
4.737814748845582
 30
0.0
 70
0
  0
VERTEX
  5
82
330
78
100
AcDbEntity
  8
CRYPTNOX_LOGO
100
AcDbVertex
100
AcDb2dVertex
 10
95.99595058568474
 20
8.369155687564763
 30
0.0
 70
0
  0
VERTEX
  5
83
330
78
100
AcDbEntity
  8
CRYPTNOX_LOGO
100
AcDbVertex
100
AcDb2dVertex
 10
98.48528983396444
 20
4.737814748845582
 30
0.0
 70
0
  0
VERTEX
  5
84
330
78
100
AcDbEntity
  8
CRYPTNOX_LOGO
100
AcDbVertex
100
AcDb2dVertex
 10
100.0
 20
4.737814748845582
 30
0.0
 70
0
  0
VERTEX
  5
85
330
78
100
AcDbEntity
  8
CRYPTNOX_LOGO
100
AcDbVertex
100
AcDb2dVertex
 10
96.75473824452159
 20
9.464646416411588
 30
0.0
 70
0
  0
SEQEND
  5
86
330
78
100
AcDbEntity
  8
CRYPTNOX_LOGO
  0
SPLINE
  5
87
330
17
100
AcDbEntity
  8
CRYPTNOX_LOGO
100
AcDbSpline
 70
0
 71
3
 72
32
 73
28
 74
0
 40
0.0
 40
0.0
 40
0.0
 40
0.0
 40
1.0
 40
1.0
 40
1.0
 40
2.0
 40
2.0
 40
2.0
 40
3.0
 40
3.0
 40
3.0
 40
4.0
 40
4.0
 40
4.0
 40
5.0
 40
5.0
 40
5.0
 40
6.0
 40
6.0
 40
6.0
 40
7.0
 40
7.0
 40
7.0
 40
8.0
 40
8.0
 40
8.0
 40
9.0
 40
9.0
 40
9.0
 40
9.0
 10
9.335619087640213
 20
0.0
 30
0.0
 10
8.109668454202938
 20
0.0
 30
0.0
 10
6.895703705118593
 20
0.2414845305687811
 30
0.0
 10
5.763013757503115
 20
0.7106531113159166
 30
0.0
 10
4.630385888173131
 20
1.1797739395357507
 30
0.0
 10
3.6012329702549506
 20
1.8674580852191613
 30
0.0
 10
2.73434314011069
 20
2.734357465868882
 30
0.0
 10
1.8674485347136995
 20
3.6012090939912986
 30
0.0
 10
1.1797930405466708
 20
4.630371562414941
 30
0.0
 10
0.7106340103049954
 20
5.763013757503115
 30
0.0
 10
0.2414745025380468
 20
6.895703705118593
 30
0.0
 10
0.0
 20
8.109668454202938
 30
0.0
 10
0.0
 20
9.335619087640213
 30
0.0
 10
0.0
 20
10.561569721077486
 30
0.0
 10
0.2414745025380468
 20
11.775534470161832
 30
0.0
 10
0.7106340103049954
 20
12.90822441777731
 30
0.0
 10
1.1797930405466708
 20
14.040857062360024
 30
0.0
 10
1.8674485347136995
 20
15.070005205025476
 30
0.0
 10
2.73434314011069
 20
15.936895035169735
 30
0.0
 10
3.6012329702549506
 20
16.803789640566723
 30
0.0
 10
4.630385888173131
 20
17.491445134733755
 30
0.0
 10
5.763013757503115
 20
17.96060416497543
 30
0.0
 10
6.895703705118593
 20
18.42976367274238
 30
0.0
 10
8.109668454202938
 20
18.67123822303295
 30
0.0
 10
9.335619087640213
 20
18.671238175280426
 30
0.0
 10
11.756528964295434
 20
18.671238175280426
 30
0.0
 10
13.932372870834188
 20
17.828334439600216
 30
0.0
 10
15.627014559745573
 20
16.23466546966998
 30
0.0
  0
POLYLINE
  5
88
330
17
100
AcDbEntity
  8
CRYPTNOX_LOGO
100
AcDb2dPolyline
 66
1
 10
0.0
 20
0.0
 30
0.0
 70
0
  0
VERTEX
  5
89
330
88
100
AcDbEntity
  8
CRYPTNOX_LOGO
100
AcDbVertex
100
AcDb2dVertex
 10
15.627014559745573
 20
16.23466546966998
 30
0.0
 70
0
  0
VERTEX
  5
8A
330
88
100
AcDbEntity
  8
CRYPTNOX_LOGO
100
AcDbVertex
100
AcDb2dVertex
 10
15.888698409363315
 20
15.982775663401984
 30
0.0
 70
0
  0
VERTEX
  5
8B
330
88
100
AcDbEntity
  8
CRYPTNOX_LOGO
100
AcDbVertex
100
AcDb2dVertex
 10
15.23692416421139
 20
15.251608066356912
 30
0.0
 70
0
  0
VERTEX
  5
8C
330
88
100
AcDbEntity
  8
CRYPTNOX_LOGO
100
AcDbVertex
100
AcDb2dVertex
 10
14.954658975326268
 20
15.520158729400752
 30
0.0
 70
0
  0
SEQEND
  5
8D
330
88
100
AcDbEntity
  8
CRYPTNOX_LOGO
  0
SPLINE
  5
8E
330
17
100
AcDbEntity
  8
CRYPTNOX_LOGO
100
AcDbSpline
 70
0
 71
3
 72
23
 73
19
 74
0
 40
0.0
 40
0.0
 40
0.0
 40
0.0
 40
1.0
 40
1.0
 40
1.0
 40
2.0
 40
2.0
 40
2.0
 40
3.0
 40
3.0
 40
3.0
 40
4.0
 40
4.0
 40
4.0
 40
5.0
 40
5.0
 40
5.0
 40
6.0
 40
6.0
 40
6.0
 40
6.0
 10
14.954658975326268
 20
15.520158729400752
 30
0.0
 10
13.44625214289466
 20
16.940347542893708
 30
0.0
 10
11.502676529155304
 20
17.69112232764919
 30
0.0
 10
9.335619087640213
 20
17.69112232764919
 30
0.0
 10
7.11961530564005
 20
17.69112232764919
 30
0.0
 10
4.994341325514652
 20
16.810809262080195
 30
0.0
 10
3.427389894610172
 20
15.243853055922981
 30
0.0
 10
1.860428913200231
 20
13.676896849765773
 30
0.0
 10
0.9801158476312357
 20
11.551622869640374
 30
0.0
 10
0.9801158476312357
 20
9.335619087640213
 30
0.0
 10
0.9801158476312357
 20
7.11961530564005
 30
0.0
 10
1.860428913200231
 20
4.994341325514654
 30
0.0
 10
3.427389894610172
 20
3.427389894610172
 30
0.0
 10
4.994341325514652
 20
1.8604384637056905
 30
0.0
 10
7.11961530564005
 20
0.980120622883965
 30
0.0
 10
9.335619087640213
 20
0.980120622883965
 30
0.0
 10
11.589872644009683
 20
0.980120622883965
 30
0.0
 10
13.390381685950727
 20
1.8965393743463874
 30
0.0
 10
14.591023479917673
 20
2.766876936961889
 30
0.0
  0
POLYLINE
  5
8F
330
17
100
AcDbEntity
  8
CRYPTNOX_LOGO
100
AcDb2dPolyline
 66
1
 10
0.0
 20
0.0
 30
0.0
 70
0
  0
VERTEX
  5
90
330
8F
100
AcDbEntity
  8
CRYPTNOX_LOGO
100
AcDbVertex
100
AcDb2dVertex
 10
14.591023479917673
 20
2.766876936961889
 30
0.0
 70
0
  0
VERTEX
  5
91
330
8F
100
AcDbEntity
  8
CRYPTNOX_LOGO
100
AcDbVertex
100
AcDb2dVertex
 10
13.126692230186281
 20
4.970178546699583
 30
0.0
 70
0
  0
SEQEND
  5
92
330
8F
100
AcDbEntity
  8
CRYPTNOX_LOGO
  0
SPLINE
  5
93
330
17
100
AcDbEntity
  8
CRYPTNOX_LOGO
100
AcDbSpline
 70
0
 71
3
 72
23
 73
19
 74
0
 40
0.0
 40
0.0
 40
0.0
 40
0.0
 40
1.0
 40
1.0
 40
1.0
 40
2.0
 40
2.0
 40
2.0
 40
3.0
 40
3.0
 40
3.0
 40
4.0
 40
4.0
 40
4.0
 40
5.0
 40
5.0
 40
5.0
 40
6.0
 40
6.0
 40
6.0
 40
6.0
 10
13.126692230186281
 20
4.970178546699583
 30
0.0
 10
11.665369389674948
 20
4.027304895111572
 30
0.0
 10
10.663664624450249
 20
3.696045613214078
 30
0.0
 10
9.335619087640213
 20
3.696045613214078
 30
0.0
 10
7.840964983071728
 20
3.696045613214078
 30
0.0
 10
6.407481865977757
 20
4.289800537693457
 30
0.0
 10
5.350575179191358
 20
5.346659471952553
 30
0.0
 10
4.2937019191740715
 20
6.4035661587389505
 30
0.0
 10
3.6999422194419638
 20
7.83700152330562
 30
0.0
 10
3.6999422194419638
 20
9.331703380401407
 30
0.0
 10
3.6999422194419638
 20
10.82635748496989
 30
0.0
 10
4.2937019191740715
 20
12.25984060206386
 30
0.0
 10
5.350575179191358
 20
13.31669953632296
 30
0.0
 10
6.407481865977757
 20
14.373615773614818
 30
0.0
 10
7.840964983071728
 20
14.967375473346927
 30
0.0
 10
9.335619087640213
 20
14.967375473346927
 30
0.0
 10
10.581960050235658
 20
14.969142316857118
 30
0.0
 10
11.796545582174936
 20
14.574018804945249
 30
0.0
 10
12.803264362766399
 20
13.839255442594299
 30
0.0
  0
POLYLINE
  5
94
330
17
100
AcDbEntity
  8
CRYPTNOX_LOGO
100
AcDb2dPolyline
 66
1
 10
0.0
 20
0.0
 30
0.0
 70
0
  0
VERTEX
  5
95
330
94
100
AcDbEntity
  8
CRYPTNOX_LOGO
100
AcDbVertex
100
AcDb2dVertex
 10
12.803264362766399
 20
13.839255442594299
 30
0.0
 70
0
  0
VERTEX
  5
96
330
94
100
AcDbEntity
  8
CRYPTNOX_LOGO
100
AcDbVertex
100
AcDb2dVertex
 10
13.370755397229395
 20
14.525339878613075
 30
0.0
 70
0
  0
SEQEND
  5
97
330
94
100
AcDbEntity
  8
CRYPTNOX_LOGO
  0
SPLINE
  5
98
330
17
100
AcDbEntity
  8
CRYPTNOX_LOGO
100
AcDbSpline
 70
0
 71
3
 72
20
 73
16
 74
0
 40
0.0
 40
0.0
 40
0.0
 40
0.0
 40
1.0
 40
1.0
 40
1.0
 40
2.0
 40
2.0
 40
2.0
 40
3.0
 40
3.0
 40
3.0
 40
4.0
 40
4.0
 40
4.0
 40
5.0
 40
5.0
 40
5.0
 40
5.0
 10
13.370755397229395
 20
14.525339878613075
 30
0.0
 10
12.207647089722222
 20
15.402539479401945
 30
0.0
 10
10.79240543805781
 20
15.880709411545604
 30
0.0
 10
9.335619087640213
 20
15.888684083605122
 30
0.0
 10
7.597140578665125
 20
15.888684083605122
 30
0.0
 10
5.929813335370774
 20
15.198067932745339
 30
0.0
 10
4.700520025022324
 20
13.968760296638699
 30
0.0
 10
3.4712123889156827
 20
12.739466986290248
 30
0.0
 10
2.780596238055899
 20
11.072139742995898
 30
0.0
 10
2.780596238055899
 20
9.33366123402081
 30
0.0
 10
2.780596238055899
 20
7.595134972518419
 30
0.0
 10
3.4712123889156827
 20
5.927855481751371
 30
0.0
 10
4.700520025022324
 20
4.698562171402921
 30
0.0
 10
5.929813335370774
 20
3.4692688610544713
 30
0.0
 10
7.597140578665125
 20
2.7786240586783046
 30
0.0
 10
9.335619087640213
 20
2.7786240586783046
 30
0.0
  0
SPLINE
  5
99
330
17
100
AcDbEntity
  8
CRYPTNOX_LOGO
100
AcDbSpline
 70
0
 71
3
 72
8
 73
4
 74
0
 40
0.0
 40
0.0
 40
0.0
 40
0.0
 40
1.0
 40
1.0
 40
1.0
 40
1.0
 10
9.335619087640213
 20
2.7786240586783046
 30
0.0
 10
10.433019917579136
 20
2.7621971892862422
 30
0.0
 10
11.515187691308562
 20
3.0367742212756603
 30
0.0
 10
12.472005080868904
 20
3.574467678701894
 30
0.0
  0
POLYLINE
  5
9A
330
17
100
AcDbEntity
  8
CRYPTNOX_LOGO
100
AcDb2dPolyline
 66
1
 10
0.0
 20
0.0
 30
0.0
 70
0
  0
VERTEX
  5
9B
330
9A
100
AcDbEntity
  8
CRYPTNOX_LOGO
100
AcDbVertex
100
AcDb2dVertex
 10
12.472005080868904
 20
3.574467678701894
 30
0.0
 70
0
  0
VERTEX
  5
9C
330
9A
100
AcDbEntity
  8
CRYPTNOX_LOGO
100
AcDbVertex
100
AcDb2dVertex
 10
12.841514137135707
 20
3.7822866775224084
 30
0.0
 70
0
  0
VERTEX
  5
9D
330
9A
100
AcDbEntity
  8
CRYPTNOX_LOGO
100
AcDbVertex
100
AcDb2dVertex
 10
13.380544665326411
 20
2.959940404845927
 30
0.0
 70
0
  0
VERTEX
  5
9E
330
9A
100
AcDbEntity
  8
CRYPTNOX_LOGO
100
AcDbVertex
100
AcDb2dVertex
 10
12.953255051023573
 20
2.719840697568918
 30
0.0
 70
0
  0
SEQEND
  5
9F
330
9A
100
AcDbEntity
  8
CRYPTNOX_LOGO
  0
SPLINE
  5
A0
330
17
100
AcDbEntity
  8
CRYPTNOX_LOGO
100
AcDbSpline
 70
0
 71
3
 72
23
 73
19
 74
0
 40
0.0
 40
0.0
 40
0.0
 40
0.0
 40
1.0
 40
1.0
 40
1.0
 40
2.0
 40
2.0
 40
2.0
 40
3.0
 40
3.0
 40
3.0
 40
4.0
 40
4.0
 40
4.0
 40
5.0
 40
5.0
 40
5.0
 40
6.0
 40
6.0
 40
6.0
 40
6.0
 10
12.953255051023573
 20
2.719840697568918
 30
0.0
 10
11.85069694813598
 20
2.0992966052728335
 30
0.0
 10
10.603639697630996
 20
1.7814557835473432
 30
0.0
 10
9.338579744332968
 20
1.7985034357943397
 30
0.0
 10
7.340136476723029
 20
1.7985034357943397
 30
0.0
 10
5.42354104090959
 20
2.5923892021985266
 30
0.0
 10
4.010410050951946
 20
4.005529742661628
 30
0.0
 10
2.5972933867524937
 20
5.418622530597432
 30
0.0
 10
1.8034171708537674
 20
7.335217966410872
 30
0.0
 10
1.8034171708537674
 20
9.33366123402081
 30
0.0
 10
1.8034171708537674
 20
11.332104501630747
 30
0.0
 10
2.5972933867524937
 20
13.248699937444188
 30
0.0
 10
4.010410050951946
 20
14.661807051138181
 30
0.0
 10
5.42354104090959
 20
16.074918940084903
 30
0.0
 10
7.340136476723029
 20
16.868799931236357
 30
0.0
 10
9.338579744332968
 20
16.868799931236357
 30
0.0
 10
11.196105303873207
 20
16.857453930749283
 30
0.0
 10
12.987780128263287
 20
16.17919135870266
 30
0.0
 10
14.387167940863268
 20
14.95757187949172
 30
0.0
  0
POLYLINE
  5
A1
330
17
100
AcDbEntity
  8
CRYPTNOX_LOGO
100
AcDb2dPolyline
 66
1
 10
0.0
 20
0.0
 30
0.0
 70
0
  0
VERTEX
  5
A2
330
A1
100
AcDbEntity
  8
CRYPTNOX_LOGO
100
AcDbVertex
100
AcDb2dVertex
 10
14.387167940863268
 20
14.95757187949172
 30
0.0
 70
0
  0
VERTEX
  5
A3
330
A1
100
AcDbEntity
  8
CRYPTNOX_LOGO
100
AcDbVertex
100
AcDb2dVertex
 10
14.744882122886352
 20
14.64295435335915
 30
0.0
 70
0
  0
VERTEX
  5
A4
330
A1
100
AcDbEntity
  8
CRYPTNOX_LOGO
100
AcDbVertex
100
AcDb2dVertex
 10
12.920878837512474
 20
12.444547377669963
 30
0.0
 70
0
  0
VERTEX
  5
A5
330
A1
100
AcDbEntity
  8
CRYPTNOX_LOGO
100
AcDbVertex
100
AcDb2dVertex
 10
12.541580513148658
 20
12.787601533811175
 30
0.0
 70
0
  0
SEQEND
  5
A6
330
A1
100
AcDbEntity
  8
CRYPTNOX_LOGO
  0
SPLINE
  5
A7
330
17
100
AcDbEntity
  8
CRYPTNOX_LOGO
100
AcDbSpline
 70
0
 71
3
 72
23
 73
19
 74
0
 40
0.0
 40
0.0
 40
0.0
 40
0.0
 40
1.0
 40
1.0
 40
1.0
 40
2.0
 40
2.0
 40
2.0
 40
3.0
 40
3.0
 40
3.0
 40
4.0
 40
4.0
 40
4.0
 40
5.0
 40
5.0
 40
5.0
 40
6.0
 40
6.0
 40
6.0
 40
6.0
 10
12.541580513148658
 20
12.787601533811175
 30
0.0
 10
11.655532369050631
 20
13.565872223787443
 30
0.0
 10
10.514915501902937
 20
13.992354820378868
 30
0.0
 10
9.335619087640213
 20
13.986275923653258
 30
0.0
 10
8.100881989179276
 20
13.986275923653258
 30
0.0
 10
6.916714817131696
 20
13.495771513707362
 30
0.0
 10
6.043655360459952
 20
12.622712057035617
 30
0.0
 10
5.170548151260905
 20
11.74960484783657
 30
0.0
 10
4.68006284232593
 20
10.56543767578899
 30
0.0
 10
4.68006284232593
 20
9.330700577328054
 30
0.0
 10
4.68006284232593
 20
8.095963478867118
 30
0.0
 10
5.170548151260905
 20
6.91184405934684
 30
0.0
 10
6.043655360459952
 20
6.038736850147794
 30
0.0
 10
6.916714817131696
 20
5.165677393476049
 30
0.0
 10
8.100881989179276
 20
4.675163433024692
 30
0.0
 10
9.335619087640213
 20
4.675163433024692
 30
0.0
 10
10.573507852903115
 20
4.675163433024692
 30
0.0
 10
11.461513850620543
 20
5.009383371614943
 30
0.0
 10
12.987541365626775
 20
6.047332305062246
 30
0.0
  0
POLYLINE
  5
A8
330
17
100
AcDbEntity
  8
CRYPTNOX_LOGO
100
AcDb2dPolyline
 66
1
 10
0.0
 20
0.0
 30
0.0
 70
0
  0
VERTEX
  5
A9
330
A8
100
AcDbEntity
  8
CRYPTNOX_LOGO
100
AcDbVertex
100
AcDb2dVertex
 10
12.987541365626775
 20
6.047332305062246
 30
0.0
 70
0
  0
VERTEX
  5
AA
330
A8
100
AcDbEntity
  8
CRYPTNOX_LOGO
100
AcDbVertex
100
AcDb2dVertex
 10
13.39821310042834
 20
6.332558150640123
 30
0.0
 70
0
  0
VERTEX
  5
AB
330
A8
100
AcDbEntity
  8
CRYPTNOX_LOGO
100
AcDbVertex
100
AcDb2dVertex
 10
15.911237602250097
 20
2.5492686700443614
 30
0.0
 70
0
  0
VERTEX
  5
AC
330
A8
100
AcDbEntity
  8
CRYPTNOX_LOGO
100
AcDbVertex
100
AcDb2dVertex
 10
15.554478470773065
 20
2.2699641378519955
 30
0.0
 70
0
  0
SEQEND
  5
AD
330
A8
100
AcDbEntity
  8
CRYPTNOX_LOGO
  0
SPLINE
  5
AE
330
17
100
AcDbEntity
  8
CRYPTNOX_LOGO
100
AcDbSpline
 70
0
 71
3
 72
8
 73
4
 74
0
 40
0.0
 40
0.0
 40
0.0
 40
0.0
 40
1.0
 40
1.0
 40
1.0
 40
1.0
 10
15.554478470773065
 20
2.2699641378519955
 30
0.0
 10
13.682436142932865
 20
0.7850515488532228
 30
0.0
 10
11.536007793212455
 20
0.0
 30
0.0
 10
9.335619087640213
 20
0.0
 30
0.0
  0
ENDSEC
  0
SECTION
  2
OBJECTS
  0
DICTIONARY
  5
A
330
0
100
AcDbDictionary
281
1
  3
ACAD_COLOR
350
B
  3
ACAD_GROUP
350
C
  3
ACAD_LAYOUT
350
D
  3
ACAD_MATERIAL
350
E
  3
ACAD_MLEADERSTYLE
350
F
  3
ACAD_MLINESTYLE
350
10
  3
ACAD_PLOTSETTINGS
350
11
  3
ACAD_PLOTSTYLENAME
350
12
  3
ACAD_SCALELIST
350
14
  3
ACAD_TABLESTYLE
350
15
  3
ACAD_VISUALSTYLE
350
16
  3
EZDXF_META
350
2D
  0
DICTIONARY
  5
B
330
A
100
AcDbDictionary
281
1
  0
DICTIONARY
  5
C
330
A
100
AcDbDictionary
281
1
  0
DICTIONARY
  5
D
330
A
100
AcDbDictionary
281
1
  3
Model
350
1A
  3
Layout1
350
1E
  0
DICTIONARY
  5
E
330
A
100
AcDbDictionary
281
1
  3
ByBlock
350
1F
  3
ByLayer
350
20
  3
Global
350
21
  0
DICTIONARY
  5
F
330
A
100
AcDbDictionary
281
1
  3
Standard
350
2C
  0
DICTIONARY
  5
10
330
A
100
AcDbDictionary
281
1
  3
Standard
350
22
  0
DICTIONARY
  5
11
330
A
100
AcDbDictionary
281
1
  0
ACDBDICTIONARYWDFLT
  5
12
330
A
100
AcDbDictionary
281
1
  3
Normal
350
13
100
AcDbDictionaryWithDefault
340
13
  0
ACDBPLACEHOLDER
  5
13
330
12
  0
DICTIONARY
  5
14
330
A
100
AcDbDictionary
281
1
  0
DICTIONARY
  5
15
330
A
100
AcDbDictionary
281
1
  0
DICTIONARY
  5
16
330
A
100
AcDbDictionary
281
1
  0
LAYOUT
  5
1A
330
D
100
AcDbPlotSettings
  1

  4
A3
  6

 40
7.5
 41
20.0
 42
7.5
 43
20.0
 44
420.0
 45
297.0
 46
0.0
 47
0.0
 48
0.0
 49
0.0
140
0.0
141
0.0
142
1.0
143
1.0
 70
1024
 72
1
 73
0
 74
5
  7

 75
16
 76
0
 77
2
 78
300
147
1.0
148
0.0
149
0.0
100
AcDbLayout
  1
Model
 70
1
 71
0
 10
0.0
 20
0.0
 11
420.0
 21
297.0
 12
0.0
 22
0.0
 32
0.0
 14
1e+20
 24
1e+20
 34
1e+20
 15
-1e+20
 25
-1e+20
 35
-1e+20
146
0.0
 13
0.0
 23
0.0
 33
0.0
 16
1.0
 26
0.0
 36
0.0
 17
0.0
 27
1.0
 37
0.0
 76
1
330
17
  0
LAYOUT
  5
1E
330
D
100
AcDbPlotSettings
  1

  4
A3
  6

 40
7.5
 41
20.0
 42
7.5
 43
20.0
 44
420.0
 45
297.0
 46
0.0
 47
0.0
 48
0.0
 49
0.0
140
0.0
141
0.0
142
1.0
143
1.0
 70
0
 72
1
 73
0
 74
5
  7

 75
16
 76
0
 77
2
 78
300
147
1.0
148
0.0
149
0.0
100
AcDbLayout
  1
Layout1
 70
1
 71
1
 10
0.0
 20
0.0
 11
420.0
 21
297.0
 12
0.0
 22
0.0
 32
0.0
 14
1e+20
 24
1e+20
 34
1e+20
 15
-1e+20
 25
-1e+20
 35
-1e+20
146
0.0
 13
0.0
 23
0.0
 33
0.0
 16
1.0
 26
0.0
 36
0.0
 17
0.0
 27
1.0
 37
0.0
 76
1
330
1B
  0
MATERIAL
  5
1F
102
{ACAD_REACTORS
330
E
102
}
330
E
100
AcDbMaterial
  1
ByBlock
  2

 70
0
 40
1.0
 71
1
 41
1.0
 91
-1023410177
 42
1.0
 72
1
  3

 73
1
 74
1
 75
1
 44
0.5
 73
0
 45
1.0
 46
1.0
 77
1
  4

 78
1
 79
1
170
1
 48
1.0
171
1
  6

172
1
173
1
174
1
140
1.0
141
1.0
175
1
  7

176
1
177
1
178
1
143
1.0
179
1
  8

270
1
271
1
272
1
145
1.0
146
1.0
273
1
  9

274
1
275
1
276
1
 42
1.0
 72
1
  3

 73
1
 74
1
 75
1
 94
63
  0
MATERIAL
  5
20
102
{ACAD_REACTORS
330
E
102
}
330
E
100
AcDbMaterial
  1
ByLayer
  2

 70
0
 40
1.0
 71
1
 41
1.0
 91
-1023410177
 42
1.0
 72
1
  3

 73
1
 74
1
 75
1
 44
0.5
 73
0
 45
1.0
 46
1.0
 77
1
  4

 78
1
 79
1
170
1
 48
1.0
171
1
  6

172
1
173
1
174
1
140
1.0
141
1.0
175
1
  7

176
1
177
1
178
1
143
1.0
179
1
  8

270
1
271
1
272
1
145
1.0
146
1.0
273
1
  9

274
1
275
1
276
1
 42
1.0
 72
1
  3

 73
1
 74
1
 75
1
 94
63
  0
MATERIAL
  5
21
102
{ACAD_REACTORS
330
E
102
}
330
E
100
AcDbMaterial
  1
Global
  2

 70
0
 40
1.0
 71
1
 41
1.0
 91
-1023410177
 42
1.0
 72
1
  3

 73
1
 74
1
 75
1
 44
0.5
 73
0
 45
1.0
 46
1.0
 77
1
  4

 78
1
 79
1
170
1
 48
1.0
171
1
  6

172
1
173
1
174
1
140
1.0
141
1.0
175
1
  7

176
1
177
1
178
1
143
1.0
179
1
  8

270
1
271
1
272
1
145
1.0
146
1.0
273
1
  9

274
1
275
1
276
1
 42
1.0
 72
1
  3

 73
1
 74
1
 75
1
 94
63
  0
MLINESTYLE
  5
22
102
{ACAD_REACTORS
330
10
102
}
330
10
100
AcDbMlineStyle
  2
Standard
 70
0
  3

 62
256
 51
90.0
 52
90.0
 71
2
 49
0.5
 62
256
  6
BYLAYER
 49
-0.5
 62
256
  6
BYLAYER
  0
MLEADERSTYLE
  5
2C
102
{ACAD_REACTORS
330
F
102
}
330
F
100
AcDbMLeaderStyle
179
2
170
2
171
1
172
0
 90
2
 40
0.0
 41
0.0
173
1
 91
-1056964608
 92
-2
290
1
 42
2.0
291
1
 43
8.0
  3
Standard
 44
4.0
300

342
29
174
1
175
1
176
0
178
1
 93
-1056964608
 45
4.0
292
0
297
0
 46
4.0
 94
-1056964608
 47
1.0
 49
1.0
140
1.0
294
1
141
0.0
177
0
142
1.0
295
0
296
0
143
3.75
271
0
272
9
273
9
  0
DICTIONARY
  5
2D
330
A
100
AcDbDictionary
280
1
281
1
  3
CREATED_BY_EZDXF
350
2E
  3
WRITTEN_BY_EZDXF
350
B1
  0
DICTIONARYVAR
  5
2E
330
2D
100
DictionaryVariables
280
0
  1
1.4.4 @ 2026-07-23T07:38:00.497618+00:00
  0
DICTIONARYVAR
  5
B1
330
2D
100
DictionaryVariables
280
0
  1
1.4.4 @ 2026-07-23T07:38:00.505673+00:00
  0
ENDSEC
  0
EOF
